<?xml version="1.0" encoding="UTF-8"?>
<svg version="1.1" xmlns="http://www.w3.org/2000/svg" width="1920" height="1080">
<path d="M0 0 C13.53 0 27.06 0 41 0 C41 0.66 41 1.32 41 2 C44.3 2 47.6 2 51 2 C50.34 2.33 49.68 2.66 49 3 C49 3.66 49 4.32 49 5 C54.445 5.495 54.445 5.495 60 6 C60 6.99 60 7.98 60 9 C62.31 9.33 64.62 9.66 67 10 C67 11.32 67 12.64 67 14 C69.31 14.33 71.62 14.66 74 15 C74 15.66 74 16.32 74 17 C75.65 17.66 77.3 18.32 79 19 C79 19.66 79 20.32 79 21 C80.65 21.66 82.3 22.32 84 23 C83.67 23.99 83.34 24.98 83 26 C84.98 26.33 86.96 26.66 89 27 C89 27.99 89 28.98 89 30 C90.98 30.99 90.98 30.99 93 32 C93 32.66 93 33.32 93 34 C94.32 34.66 95.64 35.32 97 36 C97 36.66 97 37.32 97 38 C98.74574388 39.59878075 100.59881337 41.01415879 102.46875 42.46484375 C104 44 104 44 104 47 C105.32 47.33 106.64 47.66 108 48 C108 48.99 108 49.98 108 51 C108.639375 51.103125 109.27875 51.20625 109.9375 51.3125 C110.618125 51.539375 111.29875 51.76625 112 52 C112.33 52.99 112.66 53.98 113 55 C113.99 55.66 114.98 56.32 116 57 C116 57.66 116 58.32 116 59 C117.32 59.33 118.64 59.66 120 60 C120 61.32 120 62.64 120 64 C121.32 64.33 122.64 64.66 124 65 C124 65.66 124 66.32 124 67 C125.32 67.66 126.64 68.32 128 69 C128 69.66 128 70.32 128 71 C129.32 71.66 130.64 72.32 132 73 C132 74.32 132 75.64 132 77 C133.32 77.33 134.64 77.66 136 78 C136 78.99 136 79.98 136 81 C137.32 81.33 138.64 81.66 140 82 C140 82.66 140 83.32 140 84 C141.32 84.33 142.64 84.66 144 85 C144 86.32 144 87.64 144 89 C145.32 89 146.64 89 148 89 C148 89.99 148 90.98 148 92 C148.639375 92.268125 149.27875 92.53625 149.9375 92.8125 C152 94 152 94 153 97 C153.99 97.66 154.98 98.32 156 99 C156 99.99 156 100.98 156 102 C157.32 102 158.64 102 160 102 C160 103.32 160 104.64 160 106 C161.32 106 162.64 106 164 106 C164 107.32 164 108.64 164 110 C165.32 110 166.64 110 168 110 C168 111.32 168 112.64 168 114 C169.32 114 170.64 114 172 114 C172 115.32 172 116.64 172 118 C173.32 118 174.64 118 176 118 C176.103125 118.61875 176.20625 119.2375 176.3125 119.875 C176.87525373 122.36526484 176.87525373 122.36526484 180 124 C180.33 124.66 180.66 125.32 181 126 C181.99 126.66 182.98 127.32 184 128 C184.33 128.66 184.66 129.32 185 130 C185.99 130.66 186.98 131.32 188 132 C188.33 132.66 188.66 133.32 189 134 C189.99 134.66 190.98 135.32 192 136 C192 136.66 192 137.32 192 138 C193.32 138.66 194.64 139.32 196 140 C196 140.66 196 141.32 196 142 C197.32 142.66 198.64 143.32 200 144 C200 144.66 200 145.32 200 146 C200.99 146.33 201.98 146.66 203 147 C203.69937532 148.31647119 204.36729133 149.65022151 205 151 C205.66 151.33 206.32 151.66 207 152 C207 152.99 207 153.98 207 155 C208.32 155.33 209.64 155.66 211 156 C211 156.99 211 157.98 211 159 C211.9590625 159.1546875 211.9590625 159.1546875 212.9375 159.3125 C213.618125 159.539375 214.29875 159.76625 215 160 C215.33 160.99 215.66 161.98 216 163 C216.99 163.33 217.98 163.66 219 164 C219.33 164.99 219.66 165.98 220 167 C220.99 167.66 221.98 168.32 223 169 C223 169.66 223 170.32 223 171 C224.32 171.33 225.64 171.66 227 172 C227 173.32 227 174.64 227 176 C228.32 176.33 229.64 176.66 231 177 C231 177.66 231 178.32 231 179 C231.9590625 179.4021875 231.9590625 179.4021875 232.9375 179.8125 C235 181 235 181 236 184 C236.99 184.66 237.98 185.32 239 186 C239 186.99 239 187.98 239 189 C240.32 189 241.64 189 243 189 C243 190.32 243 191.64 243 193 C244.32 193 245.64 193 247 193 C247 194.32 247 195.64 247 197 C248.32 197 249.64 197 251 197 C251 198.32 251 199.64 251 201 C252.32 201 253.64 201 255 201 C255.1546875 201.9590625 255.1546875 201.9590625 255.3125 202.9375 C255.539375 203.618125 255.76625 204.29875 256 205 C256.99 205.33 257.98 205.66 259 206 C259.33 206.99 259.66 207.98 260 209 C260.99 209.33 261.98 209.66 263 210 C263 211.32 263 212.64 263 214 C264.32 214 265.64 214 267 214 C267 215.32 267 216.64 267 218 C268.32 218 269.64 218 271 218 C271 219.32 271 220.64 271 222 C272.32 222 273.64 222 275 222 C275 223.32 275 224.64 275 226 C276.32 226 277.64 226 279 226 C279 227.32 279 228.64 279 230 C279.9590625 230.1546875 279.9590625 230.1546875 280.9375 230.3125 C281.618125 230.539375 282.29875 230.76625 283 231 C283.33 231.99 283.66 232.98 284 234 C284.99 234.33 285.98 234.66 287 235 C287.33 235.99 287.66 236.98 288 238 C288.99 238.66 289.98 239.32 291 240 C291.33 240.66 291.66 241.32 292 242 C292.99 242.66 293.98 243.32 295 244 C295.33 244.66 295.66 245.32 296 246 C296.99 246.66 297.98 247.32 299 248 C299 248.66 299 249.32 299 250 C300.32 250.66 301.64 251.32 303 252 C303 252.66 303 253.32 303 254 C303.99 254.33 304.98 254.66 306 255 C306.33 255.99 306.66 256.98 307 258 C307.99 258.66 308.98 259.32 310 260 C310 260.99 310 261.98 310 263 C311.32 263.33 312.64 263.66 314 264 C314 264.99 314 265.98 314 267 C315.32 267.33 316.64 267.66 318 268 C318 268.99 318 269.98 318 271 C318.639375 271.103125 319.27875 271.20625 319.9375 271.3125 C320.618125 271.539375 321.29875 271.76625 322 272 C322.33 272.99 322.66 273.98 323 275 C323.99 275.33 324.98 275.66 326 276 C326 277.32 326 278.64 326 280 C327.32 280 328.64 280 330 280 C330 281.32 330 282.64 330 284 C331.32 284.33 332.64 284.66 334 285 C334 285.66 334 286.32 334 287 C334.99 287.33 335.98 287.66 337 288 C337.33333333 289.33333333 337.66666667 290.66666667 338 292 C338.99 292.33 339.98 292.66 341 293 C341 294.32 341 295.64 341 297 C342.32 297 343.64 297 345 297 C345.268125 298.134375 345.53625 299.26875 345.8125 300.4375 C346.4003125 302.2009375 346.4003125 302.2009375 347 304 C347.99 304.33 348.98 304.66 350 305 C350.34342449 306.33076989 350.67619874 307.66431979 351 309 C351.99 309.66 352.98 310.32 354 311 C354.51171875 313.6015625 354.51171875 313.6015625 354.6875 316.625 C354.75324219 317.62789063 354.81898438 318.63078125 354.88671875 319.6640625 C354.92410156 320.43492187 354.96148438 321.20578125 355 322 C355.66 322 356.32 322 357 322 C357.33 321.34 357.66 320.68 358 320 C358.33 324.62 358.66 329.24 359 334 C359.99 334 360.98 334 362 334 C362 350.17 362 366.34 362 383 C360.68 383.33 359.36 383.66 358 384 C358 387.63 358 391.26 358 395 C356.68 395.33 355.36 395.66 354 396 C354 398.64 354 401.28 354 404 C352.68 404.33 351.36 404.66 350 405 C350.061875 406.175625 350.061875 406.175625 350.125 407.375 C350 410 350 410 348 412 C347.525625 412.86625 347.05125 413.7325 346.5625 414.625 C345.7890625 415.800625 345.7890625 415.800625 345 417 C344.01 417 343.02 417 342 417 C341.67 418.65 341.34 420.3 341 422 C340.01 422 339.02 422 338 422 C337.87625 422.5775 337.7525 423.155 337.625 423.75 C336.97946097 426.07394051 336.27275111 427.94945654 335 430 C334.01 430.33 333.02 430.66 332 431 C332 431.99 332 432.98 332 434 C330.68 434.33 329.36 434.66 328 435 C328 435.99 328 436.98 328 438 C326.35 438.33 324.7 438.66 323 439 C323.33 439.99 323.66 440.98 324 442 C322.68 442 321.36 442 320 442 C320 443.32 320 444.64 320 446 C318.68 446.66 317.36 447.32 316 448 C316 448.66 316 449.32 316 450 C314.68 450.66 313.36 451.32 312 452 C312 452.66 312 453.32 312 454 C310.68 454.33 309.36 454.66 308 455 C308 456.32 308 457.64 308 459 C306.68 459.33 305.36 459.66 304 460 C304 460.99 304 461.98 304 463 C302.68 463 301.36 463 300 463 C300 464.32 300 465.64 300 467 C298.68 467 297.36 467 296 467 C296 468.32 296 469.64 296 471 C294.68 471 293.36 471 292 471 C292 472.32 292 473.64 292 475 C290.68 475 289.36 475 288 475 C288 476.32 288 477.64 288 479 C287.360625 479.268125 286.72125 479.53625 286.0625 479.8125 C283.66868314 480.88667752 283.66868314 480.88667752 283 484 C282.01 484.66 281.02 485.32 280 486 C280 486.66 280 487.32 280 488 C278.68 488.33 277.36 488.66 276 489 C276 489.99 276 490.98 276 492 C274.68 492.33 273.36 492.66 272 493 C272 493.99 272 494.98 272 496 C270.68 496 269.36 496 268 496 C268 497.32 268 498.64 268 500 C267.360625 500.268125 266.72125 500.53625 266.0625 500.8125 C263.66868314 501.88667752 263.66868314 501.88667752 263 505 C262.01 505.33 261.02 505.66 260 506 C259.67 506.99 259.34 507.98 259 509 C258.01 509.33 257.02 509.66 256 510 C256 510.99 256 511.98 256 513 C254.68 513.33 253.36 513.66 252 514 C252 514.99 252 515.98 252 517 C250.68 517.66 249.36 518.32 248 519 C248 519.66 248 520.32 248 521 C245.52468811 523.12169591 242.94956528 524.63055898 240 526 C240 526.99 240 527.98 240 529 C238.68 529.33 237.36 529.66 236 530 C236 530.99 236 531.98 236 533 C234.288827 534.6762511 232.43549951 536.04914323 230.53125 537.5 C230.0259375 537.995 229.520625 538.49 229 539 C229 539.99 229 540.98 229 542 C227.68 542.33 226.36 542.66 225 543 C225 543.99 225 544.98 225 546 C223.68 546.33 222.36 546.66 221 547 C221 547.99 221 548.98 221 550 C219.68 550 218.36 550 217 550 C217 551.32 217 552.64 217 554 C215.68 554 214.36 554 213 554 C213 555.32 213 556.64 213 558 C211.68 558.66 210.36 559.32 209 560 C209 560.66 209 561.32 209 562 C207.68 562 206.36 562 205 562 C204.67 563.65 204.34 565.3 204 567 C203.01 567 202.02 567 201 567 C201 568.32 201 569.64 201 571 C199.68 571.33 198.36 571.66 197 572 C197 572.99 197 573.98 197 575 C195.68 575 194.36 575 193 575 C193 576.32 193 577.64 193 579 C191.68 579 190.36 579 189 579 C189 580.32 189 581.64 189 583 C187.68 583 186.36 583 185 583 C185 584.32 185 585.64 185 587 C183.68 587.66 182.36 588.32 181 589 C181 589.66 181 590.32 181 591 C179.68 591.66 178.36 592.32 177 593 C177 593.99 177 594.98 177 596 C175.68 596.33 174.36 596.66 173 597 C173 597.99 173 598.98 173 600 C171.68 600.33 170.36 600.66 169 601 C169 601.99 169 602.98 169 604 C167.68 604.33 166.36 604.66 165 605 C165 605.99 165 606.98 165 608 C163.68 608.33 162.36 608.66 161 609 C160.896875 609.61875 160.79375 610.2375 160.6875 610.875 C160 613 160 613 157 615 C156.67 615.66 156.34 616.32 156 617 C155.01 617.33 154.02 617.66 153 618 C152.67 618.99 152.34 619.98 152 621 C151.01 621 150.02 621 149 621 C149 622.32 149 623.64 149 625 C147.68 625.33 146.36 625.66 145 626 C145 626.99 145 627.98 145 629 C143.68 629.66 142.36 630.32 141 631 C141 631.66 141 632.32 141 633 C139.68 633.33 138.36 633.66 137 634 C137 634.99 137 635.98 137 637 C135.68 637.33 134.36 637.66 133 638 C133 638.99 133 639.98 133 641 C131.68 641.33 130.36 641.66 129 642 C129 642.99 129 643.98 129 645 C128.01 645.66 127.02 646.32 126 647 C125.67 647.99 125.34 648.98 125 650 C124.01 650.33 123.02 650.66 122 651 C122 651.99 122 652.98 122 654 C120.68 654.33 119.36 654.66 118 655 C118 655.99 118 656.98 118 658 C116.68 658.33 115.36 658.66 114 659 C114 659.99 114 660.98 114 662 C112.68 662 111.36 662 110 662 C110 663.32 110 664.64 110 666 C108.68 666 107.36 666 106 666 C105.67 667.32 105.34 668.64 105 670 C104.01 670 103.02 670 102 670 C101.71125 670.804375 101.4225 671.60875 101.125 672.4375 C100 675 100 675 98 676 C98 676.99 98 677.98 98 679 C96.68 679.33 95.36 679.66 94 680 C94 680.99 94 681.98 94 683 C92.68 683 91.36 683 90 683 C90 684.32 90 685.64 90 687 C89.0409375 687.1546875 89.0409375 687.1546875 88.0625 687.3125 C87.381875 687.539375 86.70125 687.76625 86 688 C85.67 688.99 85.34 689.98 85 691 C82.9375 692.1875 82.9375 692.1875 81 693 C81 693.66 81 694.32 81 695 C79.02 695.33 77.04 695.66 75 696 C75 696.99 75 697.98 75 699 C73.02 699.33 71.04 699.66 69 700 C69 701.32 69 702.64 69 704 C67.02 704.33 65.04 704.66 63 705 C63 705.99 63 706.98 63 708 C60.03 708.33 57.06 708.66 54 709 C54 709.99 54 710.98 54 712 C51.03 712 48.06 712 45 712 C45 712.66 45 713.32 45 714 C28.83 714 12.66 714 -4 714 C-4 713.34 -4 712.68 -4 712 C-6.64 712 -9.28 712 -12 712 C-11.67 711.01 -11.34 710.02 -11 709 C-14.3 708.67 -17.6 708.34 -21 708 C-21 707.01 -21 706.02 -21 705 C-23.31 704.67 -25.62 704.34 -28 704 C-28 703.01 -28 702.02 -28 701 C-29.98 700.34 -31.96 699.68 -34 699 C-34 698.01 -34 697.02 -34 696 C-35.65 695.67 -37.3 695.34 -39 695 C-39 694.34 -39 693.68 -39 693 C-40.65 692.34 -42.3 691.68 -44 691 C-43.67 690.01 -43.34 689.02 -43 688 C-44.65 687.67 -46.3 687.34 -48 687 C-47.67 686.01 -47.34 685.02 -47 684 C-48.65 683.67 -50.3 683.34 -52 683 C-52 682.01 -52 681.02 -52 680 C-53.32 679.34 -54.64 678.68 -56 678 C-56 677.34 -56 676.68 -56 676 C-56.99 675.34 -57.98 674.68 -59 674 C-59 673.01 -59 672.02 -59 671 C-60.32 670.67 -61.64 670.34 -63 670 C-63 669.01 -63 668.02 -63 667 C-63.9590625 666.8453125 -63.9590625 666.8453125 -64.9375 666.6875 C-65.618125 666.460625 -66.29875 666.23375 -67 666 C-67.33 665.01 -67.66 664.02 -68 663 C-68.99 662.67 -69.98 662.34 -71 662 C-71.33 661.01 -71.66 660.02 -72 659 C-72.99 658.67 -73.98 658.34 -75 658 C-75 656.68 -75 655.36 -75 654 C-76.32 654 -77.64 654 -79 654 C-79 652.68 -79 651.36 -79 650 C-80.32 650 -81.64 650 -83 650 C-83.33 648.68 -83.66 647.36 -84 646 C-84.99 646 -85.98 646 -87 646 C-87.103125 645.360625 -87.20625 644.72125 -87.3125 644.0625 C-87.539375 643.381875 -87.76625 642.70125 -88 642 C-88.99 641.67 -89.98 641.34 -91 641 C-91.33 640.01 -91.66 639.02 -92 638 C-92.99 637.67 -93.98 637.34 -95 637 C-95.33 636.01 -95.66 635.02 -96 634 C-96.99 633.67 -97.98 633.34 -99 633 C-99.33 632.01 -99.66 631.02 -100 630 C-100.99 629.67 -101.98 629.34 -103 629 C-103 627.68 -103 626.36 -103 625 C-104.32 625 -105.64 625 -107 625 C-107 623.68 -107 622.36 -107 621 C-108.32 621 -109.64 621 -111 621 C-111.103125 620.360625 -111.20625 619.72125 -111.3125 619.0625 C-111.539375 618.381875 -111.76625 617.70125 -112 617 C-112.99 616.67 -113.98 616.34 -115 616 C-115.33 615.01 -115.66 614.02 -116 613 C-116.99 612.67 -117.98 612.34 -119 612 C-119.33 611.01 -119.66 610.02 -120 609 C-120.99 608.67 -121.98 608.34 -123 608 C-123.33 607.01 -123.66 606.02 -124 605 C-124.99 604.67 -125.98 604.34 -127 604 C-127.33 603.01 -127.66 602.02 -128 601 C-128.99 600.67 -129.98 600.34 -131 600 C-131.33 599.01 -131.66 598.02 -132 597 C-132.99 596.67 -133.98 596.34 -135 596 C-135 594.68 -135 593.36 -135 592 C-136.32 591.67 -137.64 591.34 -139 591 C-139 590.01 -139 589.02 -139 588 C-140.32 587.67 -141.64 587.34 -143 587 C-143 586.01 -143 585.02 -143 584 C-143.639375 583.71125 -144.27875 583.4225 -144.9375 583.125 C-147 582 -147 582 -148 580 C-148.99 579.67 -149.98 579.34 -151 579 C-151.33 578.01 -151.66 577.02 -152 576 C-152.99 575.34 -153.98 574.68 -155 574 C-155 573.34 -155 572.68 -155 572 C-156.32 571.34 -157.64 570.68 -159 570 C-159 569.34 -159 568.68 -159 568 C-159.99 567.67 -160.98 567.34 -162 567 C-162 565.68 -162 564.36 -162 563 C-163.32 562.67 -164.64 562.34 -166 562 C-166 561.01 -166 560.02 -166 559 C-166.639375 558.896875 -167.27875 558.79375 -167.9375 558.6875 C-168.618125 558.460625 -169.29875 558.23375 -170 558 C-170.33 557.01 -170.66 556.02 -171 555 C-171.99 554.67 -172.98 554.34 -174 554 C-174.33 553.01 -174.66 552.02 -175 551 C-175.99 550.67 -176.98 550.34 -178 550 C-178 548.68 -178 547.36 -178 546 C-179.32 546 -180.64 546 -182 546 C-182 544.68 -182 543.36 -182 542 C-183.32 542 -184.64 542 -186 542 C-186 540.68 -186 539.36 -186 538 C-187.32 538 -188.64 538 -190 538 C-190.33 536.68 -190.66 535.36 -191 534 C-191.99 534 -192.98 534 -194 534 C-194.103125 533.360625 -194.20625 532.72125 -194.3125 532.0625 C-194.539375 531.381875 -194.76625 530.70125 -195 530 C-195.99 529.67 -196.98 529.34 -198 529 C-198.495 527.515 -198.495 527.515 -199 526 C-199.99 525.67 -200.98 525.34 -202 525 C-202.495 523.515 -202.495 523.515 -203 522 C-203.99 521.67 -204.98 521.34 -206 521 C-206.495 519.515 -206.495 519.515 -207 518 C-207.99 517.67 -208.98 517.34 -210 517 C-210.495 515.515 -210.495 515.515 -211 514 C-211.99 513.67 -212.98 513.34 -214 513 C-214 511.68 -214 510.36 -214 509 C-214.639375 508.896875 -215.27875 508.79375 -215.9375 508.6875 C-216.9584375 508.3471875 -216.9584375 508.3471875 -218 508 C-218.495 506.515 -218.495 506.515 -219 505 C-219.99 504.67 -220.98 504.34 -222 504 C-222.495 502.515 -222.495 502.515 -223 501 C-223.99 500.67 -224.98 500.34 -226 500 C-226.495 498.515 -226.495 498.515 -227 497 C-227.99 496.67 -228.98 496.34 -230 496 C-230.495 494.515 -230.495 494.515 -231 493 C-233.00016466 491.79117904 -233.00016466 491.79117904 -235 491 C-235 490.34 -235 489.68 -235 489 C-235.99 488.67 -236.98 488.34 -238 488 C-238.495 486.515 -238.495 486.515 -239 485 C-240.75672531 483.38229612 -242.61472291 481.95965071 -244.50390625 480.5 C-246 479 -246 479 -246 476 C-247.32 475.67 -248.64 475.34 -250 475 C-250 474.01 -250 473.02 -250 472 C-250.639375 471.71125 -251.27875 471.4225 -251.9375 471.125 C-254 470 -254 470 -255 468 C-255.99 467.34 -256.98 466.68 -258 466 C-258.33 465.34 -258.66 464.68 -259 464 C-259.99 463.34 -260.98 462.68 -262 462 C-262 461.34 -262 460.68 -262 460 C-263.32 459.34 -264.64 458.68 -266 458 C-266 457.34 -266 456.68 -266 456 C-266.99 455.34 -267.98 454.68 -269 454 C-269 453.01 -269 452.02 -269 451 C-270.32 450.67 -271.64 450.34 -273 450 C-273 449.01 -273 448.02 -273 447 C-273.639375 446.896875 -274.27875 446.79375 -274.9375 446.6875 C-275.9584375 446.3471875 -275.9584375 446.3471875 -277 446 C-277.495 444.515 -277.495 444.515 -278 443 C-278.99 442.67 -279.98 442.34 -281 442 C-281.495 440.515 -281.495 440.515 -282 439 C-282.99 438.67 -283.98 438.34 -285 438 C-285 436.68 -285 435.36 -285 434 C-286.32 434 -287.64 434 -289 434 C-289 432.68 -289 431.36 -289 430 C-290.32 430 -291.64 430 -293 430 C-293.103125 429.360625 -293.20625 428.72125 -293.3125 428.0625 C-293.539375 427.381875 -293.76625 426.70125 -294 426 C-294.99 425.67 -295.98 425.34 -297 425 C-297.33 424.01 -297.66 423.02 -298 422 C-298.99 421.67 -299.98 421.34 -301 421 C-301 419.68 -301 418.36 -301 417 C-301.99 417 -302.98 417 -304 417 C-305.76462683 413.91190305 -306 412.76687864 -306 409 C-306.99 409 -307.98 409 -309 409 C-309.99 406.36 -310.98 403.72 -312 401 C-312.66 401 -313.32 401 -314 401 C-314 398.03 -314 395.06 -314 392 C-315.32 392 -316.64 392 -318 392 C-318 388.37 -318 384.74 -318 381 C-318.66 381 -319.32 381 -320 381 C-320 365.49 -320 349.98 -320 334 C-319.34 334 -318.68 334 -318 334 C-318 330.7 -318 327.4 -318 324 C-317.01 324 -316.02 324 -315 324 C-314.67 320.7 -314.34 317.4 -314 314 C-313.01 313.67 -312.02 313.34 -311 313 C-310.30840599 311.15274948 -310.30840599 311.15274948 -310 309 C-309.625 306.8125 -309.625 306.8125 -309 305 C-308.01 304.67 -307.02 304.34 -306 304 C-305.29605388 302.68596724 -304.63654342 301.3479743 -304 300 C-303.29875 299.13375 -302.5975 298.2675 -301.875 297.375 C-299.7934519 295.24269401 -299.7934519 295.24269401 -300 293 C-299.01 292.67 -298.02 292.34 -297 292 C-296.67 291.01 -296.34 290.02 -296 289 C-295.01 289 -294.02 289 -293 289 C-292.67 287.35 -292.34 285.7 -292 284 C-291.01 284 -290.02 284 -289 284 C-289 282.68 -289 281.36 -289 280 C-287.68 280 -286.36 280 -285 280 C-285 278.68 -285 277.36 -285 276 C-283.68 276 -282.36 276 -281 276 C-281 274.68 -281 273.36 -281 272 C-279.68 272 -278.36 272 -277 272 C-277 270.68 -277 269.36 -277 268 C-275.68 268 -274.36 268 -273 268 C-273 266.68 -273 265.36 -273 264 C-272.0409375 263.5978125 -272.0409375 263.5978125 -271.0625 263.1875 C-268.66868314 262.11332248 -268.66868314 262.11332248 -268 259 C-267.01 258.67 -266.02 258.34 -265 258 C-265 257.01 -265 256.02 -265 255 C-263.68 254.67 -262.36 254.34 -261 254 C-261 253.01 -261 252.02 -261 251 C-259.68 250.67 -258.36 250.34 -257 250 C-257 249.01 -257 248.02 -257 247 C-255.68 246.34 -254.36 245.68 -253 245 C-253 244.34 -253 243.68 -253 243 C-252.0409375 242.5978125 -252.0409375 242.5978125 -251.0625 242.1875 C-248.66868314 241.11332248 -248.66868314 241.11332248 -248 238 C-247.01 238 -246.02 238 -245 238 C-244.896875 237.38125 -244.79375 236.7625 -244.6875 236.125 C-244 234 -244 234 -241 232 C-238.66858245 229.93759216 -238.0192827 229.05784811 -237 226 C-236.01 225.67 -235.02 225.34 -234 225 C-233.67 224.01 -233.34 223.02 -233 222 C-230.9375 221.3125 -230.9375 221.3125 -229 221 C-229.33 220.01 -229.66 219.02 -230 218 C-228.35 217.67 -226.7 217.34 -225 217 C-225 216.01 -225 215.02 -225 214 C-223.8125 212.625 -223.8125 212.625 -222 211 C-221.175 210.154375 -220.35 209.30875 -219.5 208.4375 C-217 206 -217 206 -214 204 C-213.67 203.01 -213.34 202.02 -213 201 C-212.01 200.67 -211.02 200.34 -210 200 C-210 199.01 -210 198.02 -210 197 C-208.68 196.67 -207.36 196.34 -206 196 C-206 195.01 -206 194.02 -206 193 C-204.68 193 -203.36 193 -202 193 C-202 191.68 -202 190.36 -202 189 C-200.68 189 -199.36 189 -198 189 C-198 187.68 -198 186.36 -198 185 C-196.68 185 -195.36 185 -194 185 C-194 183.68 -194 182.36 -194 181 C-192.68 181 -191.36 181 -190 181 C-189.34 179.35 -188.68 177.7 -188 176 C-187.34 176 -186.68 176 -186 176 C-186 174.68 -186 173.36 -186 172 C-184.68 171.67 -183.36 171.34 -182 171 C-182 170.01 -182 169.02 -182 168 C-180.68 167.67 -179.36 167.34 -178 167 C-178 166.01 -178 165.02 -178 164 C-176.68 164 -175.36 164 -174 164 C-174 162.68 -174 161.36 -174 160 C-172.68 160 -171.36 160 -170 160 C-170 158.68 -170 157.36 -170 156 C-168.68 156 -167.36 156 -166 156 C-165.67 154.35 -165.34 152.7 -165 151 C-164.01 150.67 -163.02 150.34 -162 150 C-161.67 149.01 -161.34 148.02 -161 147 C-160.01 146.67 -159.02 146.34 -158 146 C-158 145.01 -158 144.02 -158 143 C-156.68 142.67 -155.36 142.34 -154 142 C-154 141.01 -154 140.02 -154 139 C-152.68 138.67 -151.36 138.34 -150 138 C-150 137.01 -150 136.02 -150 135 C-148.35 134.67 -146.7 134.34 -145 134 C-145.33 133.01 -145.66 132.02 -146 131 C-144.37660195 129.29115995 -142.70680947 127.62553283 -141 126 C-140.34 126 -139.68 126 -139 126 C-139 125.01 -139 124.02 -139 123 C-135.37 123 -131.74 123 -128 123 C-127.67 209.13 -127.34 295.26 -127 384 C-126.01 384.33 -125.02 384.66 -124 385 C-123.67 391.6 -123.34 398.2 -123 405 C-122.01 404.67 -121.02 404.34 -120 404 C-120 406.97 -120 409.94 -120 413 C-118.68 413.33 -117.36 413.66 -116 414 C-115.67 417.63 -115.34 421.26 -115 425 C-114.01 425.33 -113.02 425.66 -112 426 C-111.67 428.31 -111.34 430.62 -111 433 C-110.01 433.33 -109.02 433.66 -108 434 C-107.67 436.64 -107.34 439.28 -107 442 C-106.01 442 -105.02 442 -104 442 C-104 443.32 -104 444.64 -104 446 C-103.01 446.33 -102.02 446.66 -101 447 C-101.33 447.66 -101.66 448.32 -102 449 C-101.34 449 -100.68 449 -100 449 C-99.34 450.65 -98.68 452.3 -98 454 C-97.01 454 -96.02 454 -95 454 C-95 455.65 -95 457.3 -95 459 C-94.01 459 -93.02 459 -92 459 C-91.67 459.99 -91.34 460.98 -91 462 C-90.01 462.66 -89.02 463.32 -88 464 C-88 464.99 -88 465.98 -88 467 C-87.01 467 -86.02 467 -85 467 C-84.67 467.99 -84.34 468.98 -84 470 C-81.98491642 470.73323796 -81.98491642 470.73323796 -80 471 C-80 472.32 -80 473.64 -80 475 C-78.68 475 -77.36 475 -76 475 C-76 476.32 -76 477.64 -76 479 C-74.35 479.33 -72.7 479.66 -71 480 C-70.67 480.99 -70.34 481.98 -70 483 C-67.98491642 483.73323796 -67.98491642 483.73323796 -66 484 C-66 484.99 -66 485.98 -66 487 C-63.69 487.33 -61.38 487.66 -59 488 C-59.33 488.99 -59.66 489.98 -60 491 C-57.69 491.33 -55.38 491.66 -53 492 C-53 492.99 -53 493.98 -53 495 C-50.36 495.33 -47.72 495.66 -45 496 C-45 496.99 -45 497.98 -45 499 C-42.03 499.33 -39.06 499.66 -36 500 C-36 500.99 -36 501.98 -36 503 C-33.03 503.33 -30.06 503.66 -27 504 C-26.67 504.99 -26.34 505.98 -26 507 C-21.38 507.66 -16.76 508.32 -12 509 C-12 509.66 -12 510.32 -12 511 C-8.46179238 511.80553624 -5.19635841 512.12629309 -1.57055664 512.12939453 C-0.50917984 512.13254669 0.55219696 512.13569885 1.64573669 512.13894653 C2.78229202 512.1369223 3.91884735 512.13489807 5.08984375 512.1328125 C6.2671254 512.13376923 7.44440704 512.13472595 8.65736389 512.13571167 C11.14454197 512.1363915 13.63172183 512.13455095 16.11889648 512.13037109 C19.91979982 512.1250249 23.72058473 512.13032034 27.52148438 512.13671875 C29.94010443 512.13605784 32.35872441 512.13477641 34.77734375 512.1328125 C35.91187485 512.13483673 37.04640594 512.13686096 38.21531677 512.13894653 C39.81211021 512.13421829 39.81211021 512.13421829 41.44116211 512.12939453 C42.37206161 512.12859894 43.30296112 512.12780334 44.2620697 512.12698364 C47.23728385 511.98899491 50.07375521 511.54266465 53 511 C53 510.34 53 509.68 53 509 C53.83144531 508.95101563 54.66289063 508.90203125 55.51953125 508.8515625 C57.14955078 508.73941406 57.14955078 508.73941406 58.8125 508.625 C59.89144531 508.55539062 60.97039062 508.48578125 62.08203125 508.4140625 C65.18626186 508.18804267 65.18626186 508.18804267 68 506 C68 505.34 68 504.68 68 504 C71.3 503.67 74.6 503.34 78 503 C78 502.01 78 501.02 78 500 C80.64 499.67 83.28 499.34 86 499 C86.33 498.01 86.66 497.02 87 496 C89.31 495.67 91.62 495.34 94 495 C94 494.01 94 493.02 94 492 C96.64 491.67 99.28 491.34 102 491 C102 490.01 102 489.02 102 488 C103.65 487.34 105.3 486.68 107 486 C107 485.34 107 484.68 107 484 C108.65 483.34 110.3 482.68 112 482 C112 481.34 112 480.68 112 480 C113.98 479.67 115.96 479.34 118 479 C118 477.68 118 476.36 118 475 C119.32 474.67 120.64 474.34 122 474 C122 473.01 122 472.02 122 471 C122.61875 470.9175 123.2375 470.835 123.875 470.75 C126.18437567 470.18741541 126.18437567 470.18741541 127.25 467.9375 C127.4975 467.298125 127.745 466.65875 128 466 C128.66 466 129.32 466 130 466 C130 465.01 130 464.02 130 463 C131.32 462.67 132.64 462.34 134 462 C133.67 461.01 133.34 460.02 133 459 C133.99 459 134.98 459 136 459 C136.33 457.68 136.66 456.36 137 455 C137.99 455 138.98 455 140 455 C140 453.35 140 451.7 140 450 C140.99 450 141.98 450 143 450 C143.33 447.69 143.66 445.38 144 443 C145.32 442.67 146.64 442.34 148 442 C148 440.35 148 438.7 148 437 C148.66 437 149.32 437 150 437 C150.66 433.7 151.32 430.4 152 427 C152.33 427.66 152.66 428.32 153 429 C153.66 429 154.32 429 155 429 C155.33 426.69 155.66 424.38 156 422 C129.6 422 103.2 422 76 422 C76 422.99 76 423.98 76 425 C75.34 425 74.68 425 74 425 C74 426.65 74 428.3 74 430 C73.01 430.33 72.02 430.66 71 431 C71 431.99 71 432.98 71 434 C70.34 434 69.68 434 69 434 C69 435.32 69 436.64 69 438 C67 439.6875 67 439.6875 65 441 C65 441.33 65 441.66 65 442 C35.63 442 6.26 442 -24 442 C-23.67 441.01 -23.34 440.02 -23 439 C-24.98 438.34 -26.96 437.68 -29 437 C-29.103125 436.05125 -29.20625 435.1025 -29.3125 434.125 C-29.68539295 430.70892499 -29.68539295 430.70892499 -33 429 C-33.70052461 426.336937 -33.77744818 423.75964263 -34 421 C-34.99 421 -35.98 421 -37 421 C-37.66 418.69 -38.32 416.38 -39 414 C-39.99 414 -40.98 414 -42 414 C-42.12375 413.236875 -42.2475 412.47375 -42.375 411.6875 C-42.88102792 408.79732864 -42.88102792 408.79732864 -45 406 C-45.33 406 -45.66 406 -46 406 C-46.103125 405.21625 -46.20625 404.4325 -46.3125 403.625 C-46.77595022 400.66954819 -46.77595022 400.66954819 -50 399 C-50.1875 395.375 -50.1875 395.375 -50 392 C-51.32 392 -52.64 392 -54 392 C-54.33 389.69 -54.66 387.38 -55 385 C-55.99 384.67 -56.98 384.34 -58 384 C-58.33 381.36 -58.66 378.72 -59 376 C-59.99 376 -60.98 376 -62 376 C-62.33 373.36 -62.66 370.72 -63 368 C-63.99 368 -64.98 368 -66 368 C-66.33 366.35 -66.66 364.7 -67 363 C-67.99 363 -68.98 363 -70 363 C-71.11445498 360.77109005 -71.16480286 359.46944894 -71.1875 357 C-71.20167969 356.29875 -71.21585938 355.5975 -71.23046875 354.875 C-71 353 -71 353 -69 351 C-68.01 351 -67.02 351 -66 351 C-66 349.68 -66 348.36 -66 347 C-65.01 347 -64.02 347 -63 347 C-62.67 344.36 -62.34 341.72 -62 339 C-60.68 338.67 -59.36 338.34 -58 338 C-58 335.36 -58 332.72 -58 330 C-56.68 330 -55.36 330 -54 330 C-54 327.69 -54 325.38 -54 323 C-52.68 322.67 -51.36 322.34 -50 322 C-50 320.35 -50 318.7 -50 317 C-49.01 317 -48.02 317 -47 317 C-46.67 314.36 -46.34 311.72 -46 309 C-45.01 308.67 -44.02 308.34 -43 308 C-41.77030122 304.48809191 -41.77030122 304.48809191 -41 301 C-40.01 301 -39.02 301 -38 301 C-37.67 298.36 -37.34 295.72 -37 293 C-36.01 293 -35.02 293 -34 293 C-33.67 291.02 -33.34 289.04 -33 287 C-32.34 287 -31.68 287 -31 287 C-30.34 284.03 -29.68 281.06 -29 278 C-28.34 278 -27.68 278 -27 278 C-27 277.34 -27 276.68 -27 276 C4.68 276 36.36 276 69 276 C69.33 278.64 69.66 281.28 70 284 C70.99 284.33 71.98 284.66 73 285 C74.64820195 287.60242414 75 288.86248779 75 292 C75.99 292.33 76.98 292.66 78 293 C78 293.99 78 294.98 78 296 C78.98527679 295.99777939 79.97055359 295.99555878 80.98568726 295.99327087 C90.25623347 295.97302781 99.52677521 295.95802222 108.79733849 295.94818783 C113.5637949 295.94296197 118.33023352 295.93586969 123.09667969 295.92456055 C127.6937439 295.91372115 132.29079097 295.90772092 136.88786697 295.90512276 C138.64460139 295.90327042 140.40133484 295.89965343 142.15806198 295.89426994 C144.61239424 295.88704557 147.06665497 295.88600965 149.52099609 295.88647461 C150.25251389 295.88287933 150.98403168 295.87928406 151.73771667 295.87557983 C156.77189568 295.88594784 156.77189568 295.88594784 159 297 C159 296.01 159 295.02 159 294 C158.01 293.67 157.02 293.34 156 293 C156 291.35 156 289.7 156 288 C154.68 287.67 153.36 287.34 152 287 C152 284.69 152 282.38 152 280 C151.01 280 150.02 280 149 280 C148.67 277.36 148.34 274.72 148 272 C146.68 272 145.36 272 144 272 C143.566875 270.2984375 143.566875 270.2984375 143.125 268.5625 C142.75375 267.386875 142.3825 266.21125 142 265 C141.34 264.67 140.68 264.34 140 264 C139.855625 263.34 139.71125 262.68 139.5625 262 C139.376875 261.34 139.19125 260.68 139 260 C138.01 259.67 137.02 259.34 136 259 C135.67 258.01 135.34 257.02 135 256 C134.01 255.34 133.02 254.68 132 254 C132 253.01 132 252.02 132 251 C131.01 251 130.02 251 129 251 C128.67 250.01 128.34 249.02 128 248 C127.01 247.34 126.02 246.68 125 246 C125.33 245.34 125.66 244.68 126 244 C124.02 243.67 122.04 243.34 120 243 C120 242.01 120 241.02 120 240 C118.68 239.67 117.36 239.34 116 239 C116 237.68 116 236.36 116 235 C114.35 234.67 112.7 234.34 111 234 C110.67 233.01 110.34 232.02 110 231 C107.98491642 230.26676204 107.98491642 230.26676204 106 230 C106 229.01 106 228.02 106 227 C103.69 226.67 101.38 226.34 99 226 C98.67 225.01 98.34 224.02 98 223 C96.35 222.67 94.7 222.34 93 222 C92.67 221.01 92.34 220.02 92 219 C89.36 218.67 86.72 218.34 84 218 C84 217.01 84 216.02 84 215 C81.03 214.67 78.06 214.34 75 214 C75 213.01 75 212.02 75 211 C71.37 210.67 67.74 210.34 64 210 C63.67 209.01 63.34 208.02 63 207 C58.05 206.34 53.1 205.68 48 205 C48 204.34 48 203.68 48 203 C39.57175183 201.93591256 31.21095432 201.84661563 22.73144531 201.86962891 C20.37298198 201.8750046 18.01470769 201.86964752 15.65625 201.86328125 C14.13281209 201.86394188 12.60937429 201.86522274 11.0859375 201.8671875 C10.04655533 201.86415115 10.04655533 201.86415115 8.98617554 201.86105347 C4.22938253 201.88350504 -0.31885574 202.18843031 -5 203 C-5.33 203.66 -5.66 204.32 -6 205 C-8.70599842 205.47597366 -11.33595404 205.84093629 -14.0625 206.125 C-14.82111328 206.21136719 -15.57972656 206.29773438 -16.36132812 206.38671875 C-18.23996986 206.59939517 -20.11988636 206.80075459 -22 207 C-22 207.99 -22 208.98 -22 210 C-23.13179687 210.06058594 -24.26359375 210.12117187 -25.4296875 210.18359375 C-26.91147145 210.26799917 -28.3932416 210.35264717 -29.875 210.4375 C-30.62136719 210.47681641 -31.36773438 210.51613281 -32.13671875 210.55664062 C-36.19986864 210.71573624 -36.19986864 210.71573624 -40 212 C-39.8927482 187.86947727 -39.77998447 163.73898574 -39.66066074 139.60851955 C-39.60538506 128.40430675 -39.55191237 117.20009076 -39.50268555 105.99584961 C-39.45977442 96.23012999 -39.41347901 86.46443329 -39.36312145 76.69874913 C-39.33657632 71.52802416 -39.31172472 66.35730358 -39.29092598 61.18655205 C-39.27129126 56.31848134 -39.2471273 51.45045401 -39.21950912 46.58242226 C-39.21017481 44.79704453 -39.20248666 43.01165731 -39.19658089 41.22626495 C-39.1882579 38.78514969 -39.17396449 36.34413798 -39.15821838 33.90306091 C-39.15724028 33.19973442 -39.15626217 32.49640793 -39.15525442 31.77176851 C-39.11919168 27.41185775 -38.69959966 23.29093843 -38 19 C-36.02 18.67 -34.04 18.34 -32 18 C-32 17.01 -32 16.02 -32 15 C-30.02 14.34 -28.04 13.68 -26 13 C-26 12.01 -26 11.02 -26 10 C-23.36 10 -20.72 10 -18 10 C-18.33 8.68 -18.66 7.36 -19 6 C-15.37 5.67 -11.74 5.34 -8 5 C-8.33 4.01 -8.66 3.02 -9 2 C-6.03 2 -3.06 2 0 2 C0 1.34 0 0.68 0 0 Z M0 326 C-1.16169042 329.9595774 -1.16169042 329.9595774 -1 334 C-2.32 334.33 -3.64 334.66 -5 335 C-5 337.31 -5 339.62 -5 342 C-6.32 342 -7.64 342 -9 342 C-9 343.65 -9 345.3 -9 347 C-9.99 347.33 -10.98 347.66 -12 348 C-13.22969878 351.51190809 -13.22969878 351.51190809 -14 355 C-14.66 355 -15.32 355 -16 355 C-16.33 355.99 -16.66 356.98 -17 358 C-16.01 358.66 -15.02 359.32 -14 360 C-12.8125 363.625 -12.8125 363.625 -12 367 C-11.01 367 -10.02 367 -9 367 C-8.67 369.64 -8.34 372.28 -8 375 C-7.01 375 -6.02 375 -5 375 C-5 376.65 -5 378.3 -5 380 C-3.68 380.66 -2.36 381.32 -1 382 C-1 383.98 -1 385.96 -1 388 C0.485 388.495 0.485 388.495 2 389 C2.33 389.99 2.66 390.98 3 392 C15.21 392 27.42 392 40 392 C40.33 389.36 40.66 386.72 41 384 C42.98 383.505 42.98 383.505 45 383 C45 380.69 45 378.38 45 376 C46.32 376 47.64 376 49 376 C49 374.02 49 372.04 49 370 C49.66 370 50.32 370 51 370 C51.99 367.69 52.98 365.38 54 363 C54.66 363 55.32 363 56 363 C56.33 360.36 56.66 357.72 57 355 C56.01 355 55.02 355 54 355 C53.505 351.04 53.505 351.04 53 347 C51.68 346.67 50.36 346.34 49 346 C49 343.69 49 341.38 49 339 C47.68 338.67 46.36 338.34 45 338 C44.87625 336.865625 44.7525 335.73125 44.625 334.5625 C44.41875 333.386875 44.2125 332.21125 44 331 C43.34 330.67 42.68 330.34 42 330 C41.505 328.02 41.505 328.02 41 326 C27.47 326 13.94 326 0 326 Z M158 418 C157.67 418.66 157.34 419.32 157 420 C157.66 420 158.32 420 159 420 C158.67 419.34 158.34 418.68 158 418 Z " fill="#FFD819" transform="translate(891,183)"/>
<path d="M0 0 C13.53 0 27.06 0 41 0 C41 0.66 41 1.32 41 2 C44.3 2 47.6 2 51 2 C50.34 2.33 49.68 2.66 49 3 C49 3.66 49 4.32 49 5 C52.63 5.33 56.26 5.66 60 6 C60 6.99 60 7.98 60 9 C62.31 9.33 64.62 9.66 67 10 C67 11.32 67 12.64 67 14 C69.31 14.33 71.62 14.66 74 15 C74 15.66 74 16.32 74 17 C75.65 17.66 77.3 18.32 79 19 C79 19.66 79 20.32 79 21 C80.65 21.66 82.3 22.32 84 23 C83.505 24.485 83.505 24.485 83 26 C84.98 26.33 86.96 26.66 89 27 C89 27.99 89 28.98 89 30 C90.98 30.99 90.98 30.99 93 32 C93 32.66 93 33.32 93 34 C94.32 34.66 95.64 35.32 97 36 C97 36.66 97 37.32 97 38 C98.74574388 39.59878075 100.59881337 41.01415879 102.46875 42.46484375 C104 44 104 44 104 47 C105.32 47.33 106.64 47.66 108 48 C108 48.99 108 49.98 108 51 C108.639375 51.103125 109.27875 51.20625 109.9375 51.3125 C110.618125 51.539375 111.29875 51.76625 112 52 C112.33 52.99 112.66 53.98 113 55 C113.99 55.66 114.98 56.32 116 57 C116 57.66 116 58.32 116 59 C117.32 59.33 118.64 59.66 120 60 C120 61.32 120 62.64 120 64 C121.32 64.33 122.64 64.66 124 65 C124 65.66 124 66.32 124 67 C125.32 67.66 126.64 68.32 128 69 C128 69.66 128 70.32 128 71 C129.32 71.66 130.64 72.32 132 73 C132 74.32 132 75.64 132 77 C133.32 77.33 134.64 77.66 136 78 C136 78.99 136 79.98 136 81 C137.32 81.33 138.64 81.66 140 82 C140 82.66 140 83.32 140 84 C141.32 84.33 142.64 84.66 144 85 C144 86.32 144 87.64 144 89 C145.32 89 146.64 89 148 89 C148 89.99 148 90.98 148 92 C148.639375 92.268125 149.27875 92.53625 149.9375 92.8125 C152 94 152 94 153 97 C153.99 97.66 154.98 98.32 156 99 C156 99.99 156 100.98 156 102 C157.32 102 158.64 102 160 102 C160 103.32 160 104.64 160 106 C161.32 106 162.64 106 164 106 C164 107.32 164 108.64 164 110 C165.32 110 166.64 110 168 110 C168 111.32 168 112.64 168 114 C169.32 114 170.64 114 172 114 C172 115.32 172 116.64 172 118 C173.32 118 174.64 118 176 118 C176.1546875 118.928125 176.1546875 118.928125 176.3125 119.875 C176.87525373 122.36526484 176.87525373 122.36526484 180 124 C180.33 124.66 180.66 125.32 181 126 C181.99 126.66 182.98 127.32 184 128 C184.33 128.66 184.66 129.32 185 130 C185.99 130.66 186.98 131.32 188 132 C188.33 132.66 188.66 133.32 189 134 C189.99 134.66 190.98 135.32 192 136 C192 136.66 192 137.32 192 138 C193.32 138.66 194.64 139.32 196 140 C196 140.66 196 141.32 196 142 C197.32 142.66 198.64 143.32 200 144 C200 144.66 200 145.32 200 146 C200.99 146.33 201.98 146.66 203 147 C203.69937532 148.31647119 204.36729133 149.65022151 205 151 C205.66 151.33 206.32 151.66 207 152 C207 152.99 207 153.98 207 155 C208.32 155.33 209.64 155.66 211 156 C211 156.99 211 157.98 211 159 C211.9590625 159.1546875 211.9590625 159.1546875 212.9375 159.3125 C213.618125 159.539375 214.29875 159.76625 215 160 C215.33 160.99 215.66 161.98 216 163 C216.99 163.33 217.98 163.66 219 164 C219.33 164.99 219.66 165.98 220 167 C220.99 167.66 221.98 168.32 223 169 C223 169.66 223 170.32 223 171 C224.32 171.33 225.64 171.66 227 172 C227 173.32 227 174.64 227 176 C228.32 176.33 229.64 176.66 231 177 C231 177.66 231 178.32 231 179 C231.639375 179.268125 232.27875 179.53625 232.9375 179.8125 C235 181 235 181 236 184 C236.99 184.66 237.98 185.32 239 186 C239 186.99 239 187.98 239 189 C240.32 189 241.64 189 243 189 C243 190.32 243 191.64 243 193 C244.32 193 245.64 193 247 193 C247 194.32 247 195.64 247 197 C248.32 197 249.64 197 251 197 C251 198.32 251 199.64 251 201 C252.32 201 253.64 201 255 201 C255.103125 201.639375 255.20625 202.27875 255.3125 202.9375 C255.539375 203.618125 255.76625 204.29875 256 205 C256.99 205.33 257.98 205.66 259 206 C259.33 206.99 259.66 207.98 260 209 C260.99 209.33 261.98 209.66 263 210 C263 211.32 263 212.64 263 214 C264.32 214 265.64 214 267 214 C267 215.32 267 216.64 267 218 C268.32 218 269.64 218 271 218 C271 219.32 271 220.64 271 222 C272.32 222 273.64 222 275 222 C275 223.32 275 224.64 275 226 C276.32 226 277.64 226 279 226 C279 227.32 279 228.64 279 230 C279.639375 230.103125 280.27875 230.20625 280.9375 230.3125 C281.9584375 230.6528125 281.9584375 230.6528125 283 231 C283.33 231.99 283.66 232.98 284 234 C284.99 234.33 285.98 234.66 287 235 C286.67 237.64 286.34 240.28 286 243 C279.94223603 239.49721131 275.66729313 235.86507922 271.60546875 230.1484375 C270.01302118 227.90190209 270.01302118 227.90190209 267.80078125 225.8515625 C266 224 266 224 266 222 C265.01 221.67 264.02 221.34 263 221 C261.02734375 218.85546875 261.02734375 218.85546875 258.9375 216.1875 C258.24527344 215.31480469 257.55304688 214.44210937 256.83984375 213.54296875 C255 211 255 211 254.06640625 208.80078125 C253.11259405 206.77215754 253.11259405 206.77215754 250.6875 206.078125 C247.15595738 204.66140151 245.49381084 202.60229615 243 199.75 C242.13632813 198.76644531 241.27265625 197.78289062 240.3828125 196.76953125 C239.59648438 195.85558594 238.81015625 194.94164062 238 194 C237.12988281 193.01580078 237.12988281 193.01580078 236.2421875 192.01171875 C233 188.27857143 233 188.27857143 233 186 C232.25363281 185.92652344 231.50726562 185.85304688 230.73828125 185.77734375 C227.26562512 184.79152553 226.30157537 183.44114294 224.1875 180.5625 C223.58292969 179.75941406 222.97835938 178.95632813 222.35546875 178.12890625 C221 176 221 176 221 174 C220.38125 173.731875 219.7625 173.46375 219.125 173.1875 C217 172 217 172 215 169 C214.13375 168.484375 213.2675 167.96875 212.375 167.4375 C211.59125 166.963125 210.8075 166.48875 210 166 C210 165.34 210 164.68 210 164 C209.01 163.67 208.02 163.34 207 163 C205.0625 160.8203125 205.0625 160.8203125 203 158.125 C200.2888718 154.56923502 200.2888718 154.56923502 197.25 151.3046875 C196 150 196 150 196 148 C194.89591797 147.64421875 194.89591797 147.64421875 193.76953125 147.28125 C190.57284328 145.8023873 188.97721996 144.15624763 186.6875 141.5 C185.64142578 140.30890625 185.64142578 140.30890625 184.57421875 139.09375 C183 137 183 137 183 135 C182.34 135 181.68 135 181 135 C179.51953125 133.53125 179.51953125 133.53125 177.8125 131.5 C177.18988281 130.77039063 176.56726562 130.04078125 175.92578125 129.2890625 C175.29027344 128.53367187 174.65476562 127.77828125 174 127 C170.16612946 122.44674977 166.354768 118.3543817 161.76171875 114.56640625 C157.64884567 110.90950579 154.18499244 106.56837235 150.875 102.1875 C149.12265517 99.89159801 149.12265517 99.89159801 146.62890625 98.66015625 C143.72195585 96.82441491 142.13447642 94.97873786 140.0625 92.25 C137.62067129 89.08071947 135.15768868 85.99068514 132.5 83 C130 80 130 80 130 78 C129.10410156 77.78085937 128.20820312 77.56171875 127.28515625 77.3359375 C123.34899629 75.73526365 121.96600106 73.99935025 119.4375 70.625 C116.54838295 66.80374358 113.78261923 63.92584723 110 61 C106.01380943 57.21855758 102.47349969 53.13177384 98.9375 48.9375 C94.93322402 44.17677949 94.93322402 44.17677949 90.62890625 39.69140625 C89 38 89 38 89 36 C88.01 36 87.02 36 86 36 C86 35.01 86 34.02 86 33 C85.01 32.7215625 85.01 32.7215625 84 32.4375 C79.73094732 30.39191226 76.25836294 27.42815357 73 24 C73 23.34 73 22.68 73 22 C72.34 22 71.68 22 71 22 C71 21.34 71 20.68 71 20 C70.38125 19.855625 69.7625 19.71125 69.125 19.5625 C67 19 67 19 65 18 C65 17.34 65 16.68 65 16 C64.24074219 15.80664062 63.48148438 15.61328125 62.69921875 15.4140625 C61.70535156 15.15367187 60.71148438 14.89328125 59.6875 14.625 C58.20830078 14.24214844 58.20830078 14.24214844 56.69921875 13.8515625 C54 13 54 13 51 11 C49.5459375 11.0309375 49.5459375 11.0309375 48.0625 11.0625 C45 11 45 11 43.34765625 9.5390625 C39.89290744 7.27421885 36.3844971 7.42405391 32.375 7.3125 C31.12541504 7.26452271 31.12541504 7.26452271 29.85058594 7.21557617 C27.23387691 7.12416383 24.61763785 7.0584947 22 7 C21.16307617 6.97808594 20.32615234 6.95617187 19.46386719 6.93359375 C17.05916366 6.87658774 14.65521366 6.83950502 12.25 6.8125 C11.52474121 6.79936768 10.79948242 6.78623535 10.05224609 6.77270508 C4.723778 6.76464854 -0.72411535 7.09119352 -4.9375 10.625 C-5.288125 11.07875 -5.63875 11.5325 -6 12 C-6 11.34 -6 10.68 -6 10 C-14.813816 11.97551048 -21.71679976 15.67285925 -29 21 C-29.79457674 21.57283092 -29.79457674 21.57283092 -30.60520554 22.15723419 C-32.75754377 25.00084693 -32.37152054 27.45819851 -32.36749268 30.98425293 C-32.37076152 31.69932117 -32.37403036 32.41438941 -32.37739825 33.15112638 C-32.38469631 35.55343899 -32.37050573 37.95514626 -32.35644531 40.35742188 C-32.35723594 42.07711389 -32.35933245 43.79680573 -32.36264038 45.51649475 C-32.36778252 50.19207417 -32.35422274 54.86743417 -32.33711338 59.54297829 C-32.32209885 64.43029884 -32.32325191 69.3176163 -32.32244873 74.20495605 C-32.31875393 82.41320552 -32.30377611 90.62137147 -32.28125 98.82958984 C-32.25237673 109.37225138 -32.24202709 119.91484564 -32.2375679 130.45754242 C-32.23358995 139.51178627 -32.22108736 148.56601545 -32.20722103 157.62024879 C-32.20311939 160.53523856 -32.20019509 163.45022781 -32.19742584 166.36521912 C-32.19253662 170.9419346 -32.18233956 175.5186092 -32.16798782 180.09530449 C-32.1634607 181.77755298 -32.16062518 183.45980698 -32.15958023 185.14206123 C-32.1578374 187.43333109 -32.14996208 189.72449826 -32.14044189 192.01574707 C-32.13746723 193.29959541 -32.13449257 194.58344376 -32.13142776 195.90619659 C-32.14083556 199.0369569 -32.14083556 199.0369569 -31 202 C-29.35303396 201.5247412 -27.70745272 201.04468109 -26.0625 200.5625 C-25.14597656 200.29566406 -24.22945312 200.02882813 -23.28515625 199.75390625 C-21.0597507 199.20973949 -21.0597507 199.20973949 -20 198 C-16.86437744 197.79280027 -13.73042083 197.68049265 -10.58984375 197.57421875 C-7.31031816 197.0496374 -6.14550614 196.59714207 -3.44921875 194.9765625 C2.38637978 191.851576 8.67517041 192.53819839 15.125 192.6875 C16.35476563 192.69716797 17.58453125 192.70683594 18.8515625 192.71679688 C27.26718202 192.81845614 35.61362297 193.31390051 44 194 C44.33 194.99 44.66 195.98 45 197 C48.15199883 197.85963605 50.16939954 197.97228008 53.4375 197.4375 C57.38709375 196.95246217 59.46658635 197.19220697 63 199 C64.375 201.625 64.375 201.625 65 204 C65.99 203.773125 66.98 203.54625 68 203.3125 C72.61009705 202.6148575 75.79933553 204.1576033 80 206 C80 206.66 80 207.32 80 208 C80.99 208 81.98 208 83 208 C83 208.66 83 209.32 83 210 C83.69867187 210.06058594 84.39734375 210.12117187 85.1171875 210.18359375 C86.02726563 210.26738281 86.93734375 210.35117187 87.875 210.4375 C89.23238281 210.55931641 89.23238281 210.55931641 90.6171875 210.68359375 C93 211 93 211 95 212 C95 212.66 95 213.32 95 214 C96.32 214 97.64 214 99 214 C99.66 214.99 100.32 215.98 101 217 C101.78375 217.309375 102.5675 217.61875 103.375 217.9375 C106.38374699 219.15532616 107.83257999 220.61583799 110 223 C110.5775 223.5775 111.155 224.155 111.75 224.75 C112.1625 225.1625 112.575 225.575 113 226 C111.1875 228 111.1875 228 109 230 C108.01 230 107.02 230 106 230 C106 229.01 106 228.02 106 227 C103.69 226.67 101.38 226.34 99 226 C98.67 225.01 98.34 224.02 98 223 C96.35 222.67 94.7 222.34 93 222 C92.67 221.01 92.34 220.02 92 219 C89.36 218.67 86.72 218.34 84 218 C84 217.01 84 216.02 84 215 C81.03 214.67 78.06 214.34 75 214 C75 213.01 75 212.02 75 211 C71.37 210.67 67.74 210.34 64 210 C63.67 209.01 63.34 208.02 63 207 C58.05 206.34 53.1 205.68 48 205 C48 204.34 48 203.68 48 203 C39.57175183 201.93591256 31.21095432 201.84661563 22.73144531 201.86962891 C20.37298198 201.8750046 18.01470769 201.86964752 15.65625 201.86328125 C14.13281209 201.86394188 12.60937429 201.86522274 11.0859375 201.8671875 C10.04655533 201.86415115 10.04655533 201.86415115 8.98617554 201.86105347 C4.22938253 201.88350504 -0.31885574 202.18843031 -5 203 C-5.33 203.66 -5.66 204.32 -6 205 C-8.70599842 205.47597366 -11.33595404 205.84093629 -14.0625 206.125 C-14.82111328 206.21136719 -15.57972656 206.29773438 -16.36132812 206.38671875 C-18.23996986 206.59939517 -20.11988636 206.80075459 -22 207 C-22 207.99 -22 208.98 -22 210 C-23.13179687 210.06058594 -24.26359375 210.12117187 -25.4296875 210.18359375 C-26.91147145 210.26799917 -28.3932416 210.35264717 -29.875 210.4375 C-30.62136719 210.47681641 -31.36773438 210.51613281 -32.13671875 210.55664062 C-36.19986864 210.71573624 -36.19986864 210.71573624 -40 212 C-39.8927482 187.86947727 -39.77998447 163.73898574 -39.66066074 139.60851955 C-39.60538506 128.40430675 -39.55191237 117.20009076 -39.50268555 105.99584961 C-39.45977442 96.23012999 -39.41347901 86.46443329 -39.36312145 76.69874913 C-39.33657632 71.52802416 -39.31172472 66.35730358 -39.29092598 61.18655205 C-39.27129126 56.31848134 -39.2471273 51.45045401 -39.21950912 46.58242226 C-39.21017481 44.79704453 -39.20248666 43.01165731 -39.19658089 41.22626495 C-39.1882579 38.78514969 -39.17396449 36.34413798 -39.15821838 33.90306091 C-39.15724028 33.19973442 -39.15626217 32.49640793 -39.15525442 31.77176851 C-39.11919168 27.41185775 -38.69959966 23.29093843 -38 19 C-36.02 18.67 -34.04 18.34 -32 18 C-32 17.01 -32 16.02 -32 15 C-30.02 14.34 -28.04 13.68 -26 13 C-26 12.01 -26 11.02 -26 10 C-23.36 10 -20.72 10 -18 10 C-18.33 8.68 -18.66 7.36 -19 6 C-15.37 5.67 -11.74 5.34 -8 5 C-8.33 4.01 -8.66 3.02 -9 2 C-6.03 2 -3.06 2 0 2 C0 1.34 0 0.68 0 0 Z " fill="#FFFA1D" transform="translate(891,183)"/>
<path d="M0 0 C12 12 12 12 12 16 C12.56460938 16.061875 13.12921875 16.12375 13.7109375 16.1875 C16.96812847 17.34363604 18.40430056 19.38566487 20.625 22 C23.42281657 25.49230238 23.42281657 25.49230238 27 28 C27.268125 28.61875 27.53625 29.2375 27.8125 29.875 C28.8634954 32.18492683 28.8634954 32.18492683 31.3046875 33.31640625 C34.35348446 35.22079971 36.10444352 37.23901535 38.3125 40.0625 C39.00988281 40.94035156 39.70726562 41.81820312 40.42578125 42.72265625 C42 45 42 45 42 47 C42.928125 47.433125 42.928125 47.433125 43.875 47.875 C46 49 46 49 48 51 C48.9075 51.721875 49.815 52.44375 50.75 53.1875 C53.05788621 55.08844009 54.97662749 57.06686949 56.875 59.375 C59.67067874 62.76079563 62.78819177 65.53106973 66.16796875 68.32421875 C68.08889906 70.08131705 69.56996318 71.82616694 71 74 C71 74.66 71 75.32 71 76 C71.556875 76.185625 72.11375 76.37125 72.6875 76.5625 C75.61580417 78.38279719 76.98725758 80.5855761 78.8515625 83.44140625 C79.93246934 85.15572515 79.93246934 85.15572515 82 86 C82 86.99 82 87.98 82 89 C83.485 89.495 83.485 89.495 85 90 C86.66666667 91.66666667 88.33333333 93.33333333 90 95 C90.66 95.30035156 91.32 95.60070312 92 95.91015625 C94.46545055 97.25363419 95.20746982 98.56720654 96.5625 101 C98.2572434 104.02275544 98.9974895 104.99832634 102 107 C102 107.99 102 108.98 102 110 C102.61875 110.226875 103.2375 110.45375 103.875 110.6875 C106 112 106 112 106.9375 114.5 C107.74679691 117.19380196 107.74679691 117.19380196 110.25 118 C111.1575 118.33 112.065 118.66 113 119 C118.26418281 122.70885607 121.96262859 127.45029166 125.94921875 132.4765625 C127.86911776 134.94164952 127.86911776 134.94164952 129.76953125 136.7109375 C131 138 131 138 131 140 C131.59167969 140.07863281 132.18335938 140.15726563 132.79296875 140.23828125 C135.72133482 141.24895627 136.54610041 142.67069676 138.3125 145.1875 C141.04841508 148.88420752 143.82227775 151.78779195 147.3828125 154.67578125 C149.75833716 156.62095724 151.85724058 158.8036716 154 161 C154.52207031 161.50015625 155.04414062 162.0003125 155.58203125 162.515625 C160.50832139 167.27511073 165.0530501 172.3922556 169 178 C169 178.66 169 179.32 169 180 C170.32 180.66 171.64 181.32 173 182 C173 182.66 173 183.32 173 184 C173.7425 184.22816406 174.485 184.45632813 175.25 184.69140625 C178.56672656 186.26967812 179.84994516 187.98550938 182 190.9375 C184.74353243 194.69326315 187.03276724 196.64726893 191 199 C192.85373306 200.82048225 194.5924247 202.62576344 196.3125 204.5625 C196.78598877 205.08827637 197.25947754 205.61405273 197.74731445 206.15576172 C210 219.8772821 210 219.8772821 210 223 C210.66 223 211.32 223 212 223 C214.125 224.8125 214.125 224.8125 216 227 C216 227.99 216 228.98 216 230 C216.66 230 217.32 230 218 230 C218 230.66 218 231.32 218 232 C218.5775 232.0825 219.155 232.165 219.75 232.25 C222.6539336 233.21797787 224.03740604 234.68694284 226 237 C226 237.66 226 238.32 226 239 C226.66 239 227.32 239 228 239 C228 239.66 228 240.32 228 241 C228.66 241 229.32 241 230 241 C230.33 243.31 230.66 245.62 231 248 C229.35 247.34 227.7 246.68 226 246 C226 245.01 226 244.02 226 243 C225.0409375 242.8453125 225.0409375 242.8453125 224.0625 242.6875 C223.381875 242.460625 222.70125 242.23375 222 242 C221.67 241.01 221.34 240.02 221 239 C220.01 238.67 219.02 238.34 218 238 C217.67 237.01 217.34 236.02 217 235 C216.01 234.67 215.02 234.34 214 234 C214 232.68 214 231.36 214 230 C212.68 230 211.36 230 210 230 C210 228.68 210 227.36 210 226 C208.68 226 207.36 226 206 226 C205.67 224.68 205.34 223.36 205 222 C204.01 222 203.02 222 202 222 C201.896875 221.360625 201.79375 220.72125 201.6875 220.0625 C201.460625 219.381875 201.23375 218.70125 201 218 C200.01 217.67 199.02 217.34 198 217 C197.67 216.01 197.34 215.02 197 214 C196.01 213.67 195.02 213.34 194 213 C193.67 212.01 193.34 211.02 193 210 C192.01 209.67 191.02 209.34 190 209 C189.67 208.01 189.34 207.02 189 206 C188.01 205.67 187.02 205.34 186 205 C186 203.68 186 202.36 186 201 C184.68 201 183.36 201 182 201 C182 199.68 182 198.36 182 197 C180.68 197 179.36 197 178 197 C177.896875 196.360625 177.79375 195.72125 177.6875 195.0625 C177.460625 194.381875 177.23375 193.70125 177 193 C176.01 192.67 175.02 192.34 174 192 C173.67 191.01 173.34 190.02 173 189 C172.01 188.67 171.02 188.34 170 188 C169.67 187.01 169.34 186.02 169 185 C168.01 184.67 167.02 184.34 166 184 C165.67 183.01 165.34 182.02 165 181 C164.01 180.67 163.02 180.34 162 180 C161.67 179.01 161.34 178.02 161 177 C160.01 176.67 159.02 176.34 158 176 C157.67 175.01 157.34 174.02 157 173 C156.01 172.67 155.02 172.34 154 172 C154 170.68 154 169.36 154 168 C152.68 167.67 151.36 167.34 150 167 C150 166.01 150 165.02 150 164 C148.68 163.67 147.36 163.34 146 163 C146 162.01 146 161.02 146 160 C145.360625 159.71125 144.72125 159.4225 144.0625 159.125 C142 158 142 158 141 156 C140.01 155.67 139.02 155.34 138 155 C137.67 154.01 137.34 153.02 137 152 C136.01 151.34 135.02 150.68 134 150 C134 149.34 134 148.68 134 148 C132.68 147.34 131.36 146.68 130 146 C130 145.34 130 144.68 130 144 C129.01 143.67 128.02 143.34 127 143 C127 141.68 127 140.36 127 139 C125.68 138.67 124.36 138.34 123 138 C123 137.01 123 136.02 123 135 C122.0409375 134.8453125 122.0409375 134.8453125 121.0625 134.6875 C120.0415625 134.3471875 120.0415625 134.3471875 119 134 C118.67 133.01 118.34 132.02 118 131 C117.01 130.67 116.02 130.34 115 130 C114.67 129.01 114.34 128.02 114 127 C112.515 126.505 112.515 126.505 111 126 C111 124.68 111 123.36 111 122 C109.68 122 108.36 122 107 122 C107 120.68 107 119.36 107 118 C105.68 118 104.36 118 103 118 C103 116.68 103 115.36 103 114 C101.68 114 100.36 114 99 114 C98.67 112.68 98.34 111.36 98 110 C97.01 110 96.02 110 95 110 C94.896875 109.360625 94.79375 108.72125 94.6875 108.0625 C94.460625 107.381875 94.23375 106.70125 94 106 C92.515 105.505 92.515 105.505 91 105 C90.67 104.01 90.34 103.02 90 102 C88.515 101.505 88.515 101.505 87 101 C86.67 100.01 86.34 99.02 86 98 C84.515 97.505 84.515 97.505 83 97 C82.67 96.01 82.34 95.02 82 94 C80.515 93.505 80.515 93.505 79 93 C78.67 92.01 78.34 91.02 78 90 C76.515 89.505 76.515 89.505 75 89 C75 87.68 75 86.36 75 85 C74.360625 84.896875 73.72125 84.79375 73.0625 84.6875 C72.381875 84.460625 71.70125 84.23375 71 84 C70.67 83.01 70.34 82.02 70 81 C68.515 80.505 68.515 80.505 67 80 C66.67 79.01 66.34 78.02 66 77 C64.515 76.505 64.515 76.505 63 76 C62.67 75.01 62.34 74.02 62 73 C60.515 72.505 60.515 72.505 59 72 C58.67 71.01 58.34 70.02 58 69 C55.99983534 67.79117904 55.99983534 67.79117904 54 67 C54 66.34 54 65.68 54 65 C53.01 64.67 52.02 64.34 51 64 C50.67 63.01 50.34 62.02 50 61 C48.24327469 59.38229612 46.38527709 57.95965071 44.49609375 56.5 C43 55 43 55 43 52 C41.68 51.67 40.36 51.34 39 51 C39 50.01 39 49.02 39 48 C38.360625 47.71125 37.72125 47.4225 37.0625 47.125 C35 46 35 46 34 44 C33.01 43.34 32.02 42.68 31 42 C30.67 41.34 30.34 40.68 30 40 C29.01 39.34 28.02 38.68 27 38 C27 37.34 27 36.68 27 36 C25.68 35.34 24.36 34.68 23 34 C23 33.34 23 32.68 23 32 C22.01 31.34 21.02 30.68 20 30 C20 29.01 20 28.02 20 27 C18.68 26.67 17.36 26.34 16 26 C16 25.01 16 24.02 16 23 C15.360625 22.896875 14.72125 22.79375 14.0625 22.6875 C13.381875 22.460625 12.70125 22.23375 12 22 C11.67 21.01 11.34 20.02 11 19 C10.01 18.67 9.02 18.34 8 18 C7.67 17.01 7.34 16.02 7 15 C6.01 14.67 5.02 14.34 4 14 C4 12.68 4 11.36 4 10 C2.68 10 1.36 10 0 10 C0 8.68 0 7.36 0 6 C-1.32 6 -2.64 6 -4 6 C-4 5.01 -4 4.02 -4 3 C-3.34 3 -2.68 3 -2 3 C-1.67 2.34 -1.34 1.68 -1 1 C-0.67 0.67 -0.34 0.34 0 0 Z " fill="#FFFB2A" transform="translate(602,607)"/>
<path d="M0 0 C0.33 0 0.66 0 1 0 C1.125 2.875 1.125 2.875 1 6 C0.34 6.66 -0.32 7.32 -1 8 C-1.22879758 9.99380751 -1.45548642 11.98794645 -1.66015625 13.984375 C-2.13234875 16.78496502 -3.43502258 18.65253387 -5 21 C-5.680625 22.670625 -5.680625 22.670625 -6.375 24.375 C-7.87978432 27.73182656 -9.51154772 30.32607233 -11.71875 33.2265625 C-13.07924287 35.04439493 -13.07924287 35.04439493 -14.328125 37.31640625 C-16.35514909 40.57006408 -18.7521507 43.41898586 -21.25 46.3125 C-21.92869141 47.10817383 -21.92869141 47.10817383 -22.62109375 47.91992188 C-24.07406419 49.619124 -25.53695719 51.30946618 -27 53 C-27.81114258 53.95011963 -27.81114258 53.95011963 -28.63867188 54.91943359 C-33.50187523 60.56787041 -38.72077103 65.78359151 -44.0390625 71 C-48.01075076 74.92568414 -51.76589479 78.95652071 -55.41015625 83.1875 C-58.22849144 86.40054061 -61.31500775 89.33303387 -64.375 92.3125 C-66.44455078 94.43132579 -68.38215475 96.57137354 -70.3125 98.8125 C-74.63631675 103.80079941 -79.32914278 108.38030863 -84.0390625 113 C-88.01075076 116.92568414 -91.76589479 120.95652071 -95.41015625 125.1875 C-98.22849144 128.40054061 -101.31500775 131.33303387 -104.375 134.3125 C-106.41568704 136.40177483 -108.31869631 138.50656464 -110.21728516 140.71948242 C-113.70072277 144.71446945 -117.36688654 148.46469108 -121.1484375 152.17578125 C-122.49753473 153.51222959 -123.84648859 154.84882268 -125.1953125 156.18554688 C-127.28186349 158.24739772 -129.37000371 160.30758382 -131.4609375 162.36499023 C-138.71393782 169.50936661 -145.72402154 176.58992231 -152.03662109 184.58911133 C-155.13452392 188.39311411 -158.60322298 191.77988667 -162.125 195.1875 C-166.04287336 199.00267183 -169.89279156 202.80913801 -173.4609375 206.95703125 C-177.91953508 212.13644595 -182.81095603 216.85906058 -187.68359375 221.64453125 C-191.73855931 225.6555008 -195.58337548 229.75712042 -199.30273438 234.08007812 C-202.5976823 237.80727469 -206.19468863 241.23498575 -209.75 244.7109375 C-212.71604287 247.63725658 -215.56024317 250.60522396 -218.26977539 253.77197266 C-221.74466371 257.7637633 -225.40794965 261.50528637 -229.18359375 265.2109375 C-230.53724681 266.55194462 -231.89075806 267.89309489 -233.24414062 269.234375 C-235.33957803 271.30507953 -237.43660555 273.3741198 -239.53637695 275.44042969 C-246.53672171 282.33656113 -253.37466259 289.1125197 -259.35522461 296.93457031 C-261.80889668 300.01577348 -264.60806692 302.59653606 -267.5625 305.1875 C-268.68869608 306.19658336 -269.81370588 307.20699232 -270.9375 308.21875 C-271.46601562 308.693125 -271.99453125 309.1675 -272.5390625 309.65625 C-274.99546728 311.91561696 -277.28011761 314.33455793 -279.53515625 316.79296875 C-281.30235333 318.24913915 -282.78649689 318.51509465 -285 319 C-286.73026102 320.47890069 -286.73026102 320.47890069 -288 322 C-288.99 321.67 -289.98 321.34 -291 321 C-285.57613636 316.20681818 -285.57613636 316.20681818 -282.5625 315.125 C-277.08348853 312.71958033 -273.32366681 307.40416011 -269.5 302.9375 C-267.30634052 300.38639154 -265.09637641 298.13853325 -262.5 296 C-258.00751712 292.29319798 -254.32312923 287.90738928 -250.6953125 283.3671875 C-247.98182988 279.97976802 -245.07129644 277.31115912 -241.75 274.5625 C-239.99975 272.99977679 -238.55046648 271.37393745 -237.0625 269.5625 C-234.98073619 267.0369918 -232.83836544 264.95421851 -230.3125 262.875 C-224.95618761 258.33087317 -220.66118898 252.87834825 -216.21289062 247.47265625 C-212.33630929 242.76582481 -208.31311955 238.31311955 -204 234 C-203.34 233.01 -202.68 232.02 -202 231 C-201.34 231 -200.68 231 -200 231 C-200 230.34 -200 229.68 -200 229 C-199.01 228.67 -198.02 228.34 -197 228 C-195.28891311 226.37897032 -193.62746694 224.70496537 -192 223 C-191.113125 222.175 -190.22625 221.35 -189.3125 220.5 C-186.91139631 218.22070551 -186.91139631 218.22070551 -186.109375 215.62036133 C-184.82193289 212.57940265 -183.27158734 210.89878656 -180.9375 208.57421875 C-180.14085937 207.77822266 -179.34421875 206.98222656 -178.5234375 206.16210938 C-177.69070313 205.34548828 -176.85796875 204.52886719 -176 203.6875 C-175.16726563 202.85154297 -174.33453125 202.01558594 -173.4765625 201.15429688 C-167.26700255 195 -167.26700255 195 -165 195 C-164.34 193.68 -163.68 192.36 -163 191 C-162.34 191 -161.68 191 -161 191 C-160.91234375 190.43152344 -160.8246875 189.86304688 -160.734375 189.27734375 C-159.79617741 186.36793314 -158.31732435 184.80469201 -156.25 182.5625 C-155.57453125 181.82128906 -154.8990625 181.08007812 -154.203125 180.31640625 C-151.84248601 177.83438689 -149.42735189 175.41687411 -147 173 C-145.76600816 171.74439203 -144.53301169 170.48780538 -143.30078125 169.23046875 C-141.97144431 167.88272358 -140.64201548 166.53506904 -139.3125 165.1875 C-138.63638672 164.49462891 -137.96027344 163.80175781 -137.26367188 163.08789062 C-136.61591797 162.43369141 -135.96816406 161.77949219 -135.30078125 161.10546875 C-134.71466064 160.50887451 -134.12854004 159.91228027 -133.5246582 159.29760742 C-132 158 -132 158 -130 158 C-129.89945313 157.39671875 -129.79890625 156.7934375 -129.6953125 156.171875 C-128.86765785 153.58661666 -128.00942435 152.87713964 -125.875 151.25 C-122.27054716 148.351574 -119.40443789 145.11205911 -116.48046875 141.5390625 C-115.99191406 141.03117188 -115.50335937 140.52328125 -115 140 C-114.34 140 -113.68 140 -113 140 C-112.79375 139.46375 -112.5875 138.9275 -112.375 138.375 C-110.46749574 135.08021991 -107.95180616 132.40636372 -105 130 C-104.34 130 -103.68 130 -103 130 C-102.01 128.02 -102.01 128.02 -101 126 C-100.34 126 -99.68 126 -99 126 C-98.73960937 125.42121094 -98.47921875 124.84242188 -98.2109375 124.24609375 C-96.91807675 121.84804558 -95.45274925 120.07781303 -93.625 118.0625 C-91.63928505 115.8470329 -89.72145456 113.64772195 -87.875 111.3125 C-85.74233613 108.68221456 -83.40694838 106.38280993 -81 104 C-80.1028125 103.1028125 -79.205625 102.205625 -78.28125 101.28125 C-70 93 -70 93 -67.3671875 90.37109375 C-65.98159717 88.98321696 -64.59962015 87.5916831 -63.2265625 86.19140625 C-60.41882131 83.33572802 -57.59000241 80.6120984 -54.5 78.0625 C-52.03285484 75.99283733 -49.92797439 73.83750861 -47.85546875 71.375 C-43.03501968 65.79581199 -37.71657868 60.73305909 -32.40820312 55.62304688 C-27.53608904 50.8682949 -27.53608904 50.8682949 -23.76171875 45.25390625 C-22 42 -22 42 -19.54296875 39.6640625 C-16.05732047 36.01243097 -14.34780767 31.95184177 -12.3125 27.375 C-11.53971288 25.673591 -10.76504937 23.97303269 -9.98828125 22.2734375 C-9.65352783 21.52497559 -9.31877441 20.77651367 -8.97387695 20.00537109 C-8 18 -8 18 -6 15 C-5.48195331 13.57604966 -5.00547723 12.13656112 -4.5625 10.6875 C-3.35703018 6.923482 -1.87858673 3.48880393 0 0 Z " fill="#FFEB1B" transform="translate(1246,559)"/>
<path d="M0 0 C1.32 0 2.64 0 4 0 C3.43195494 3.79862815 1.83652265 5.53813605 -0.84545898 8.21777344 C-1.6597789 9.03832214 -2.47409882 9.85887085 -3.31309509 10.70428467 C-4.19848465 11.58046448 -5.08387421 12.45664429 -5.99609375 13.359375 C-6.8999733 14.26375305 -7.80385284 15.1681311 -8.73512268 16.09991455 C-10.64748097 18.00993168 -12.56247038 19.91676407 -14.48266602 21.81884766 C-16.94722296 24.26066958 -19.4005018 26.71346207 -21.85034084 29.17004013 C-24.18538193 31.5092183 -26.52844445 33.84032002 -28.87109375 36.171875 C-30.19614174 37.4982901 -30.19614174 37.4982901 -31.54795837 38.85150146 C-32.36543045 39.65944153 -33.18290253 40.46738159 -34.02514648 41.29980469 C-34.74604965 42.01610046 -35.46695282 42.73239624 -36.20970154 43.47039795 C-38 45 -38 45 -40 45 C-40.33 45.99 -40.66 46.98 -41 48 C-41.66 48 -42.32 48 -43 48 C-43.10256104 48.58700684 -43.20512207 49.17401367 -43.31079102 49.77880859 C-44.11667277 52.37601447 -45.15631775 53.58047949 -47.02734375 55.5390625 C-47.64996094 56.19712891 -48.27257812 56.85519531 -48.9140625 57.53320312 C-49.58179688 58.22349609 -50.24953125 58.91378906 -50.9375 59.625 C-51.61683594 60.33849609 -52.29617188 61.05199219 -52.99609375 61.78710938 C-57.47081352 66.46946293 -62.00953129 71.08171879 -66.65625 75.59375 C-68.48524569 77.47151891 -70.16155093 79.3589381 -71.8515625 81.35546875 C-75.36714799 85.4079217 -79.12155695 89.18295995 -82.9296875 92.95703125 C-83.567995 93.58983002 -84.20630249 94.22262878 -84.86395264 94.87460327 C-87.53476577 97.51781974 -90.20896938 100.15753489 -92.88818359 102.79223633 C-99.85180751 109.64782454 -106.5230615 116.4542268 -112.59082031 124.13012695 C-117.36472774 129.81692081 -122.6953585 134.99024329 -127.95922852 140.2199707 C-129.96548207 142.21533012 -131.9606024 144.22139046 -133.95507812 146.22851562 C-135.22852446 147.5006432 -136.50258951 148.77215178 -137.77734375 150.04296875 C-138.67101906 150.94271675 -138.67101906 150.94271675 -139.58274841 151.86064148 C-143.76998068 156 -143.76998068 156 -146 156 C-146.0825 156.556875 -146.165 157.11375 -146.25 157.6875 C-147.23895541 160.73677919 -148.84757466 162.65189963 -151 165 C-151.66 165 -152.32 165 -153 165 C-153.26941406 165.57878906 -153.53882813 166.15757812 -153.81640625 166.75390625 C-155.01285924 169.02440285 -156.36305904 170.9143634 -157.9375 172.9375 C-160.1738489 175.8611171 -162.16098623 178.80592346 -164 182 C-164.33 182.33 -164.66 182.66 -165 183 C-165.32171315 184.38921589 -165.60753496 185.78682781 -165.875 187.1875 C-167.04023732 192.60801137 -168.230995 196.82066334 -173 200 C-172.35626648 197.32602999 -171.68524257 194.66339565 -171 192 C-170.70802734 190.77410156 -170.70802734 190.77410156 -170.41015625 189.5234375 C-168.99342136 184.10798935 -167.13167028 180.25915355 -163.5 175.984375 C-161.85624819 173.9463685 -161.85624819 173.9463685 -160.609375 171.1015625 C-158.85739997 167.72518343 -156.85696987 165.38579728 -154.25 162.625 C-151.17612132 159.33187815 -148.1283266 156.03765153 -145.1875 152.625 C-142.57663738 149.61762787 -139.81655819 146.81655819 -137 144 C-136.0563796 142.88012867 -135.11932129 141.75470807 -134.1875 140.625 C-131.35265087 137.25541189 -128.18484162 134.4823661 -124.828125 131.64453125 C-122.59958817 129.63980047 -120.85102293 127.34937525 -119 125 C-118.34 125 -117.68 125 -117 125 C-116.773125 124.46375 -116.54625 123.9275 -116.3125 123.375 C-114.54429911 120.17539839 -112.46329797 117.70962777 -110 115 C-109.34 115 -108.68 115 -108 115 C-107.73501709 114.40904541 -107.47003418 113.81809082 -107.19702148 113.20922852 C-105.96289409 110.93151716 -104.69022258 109.46026035 -102.84765625 107.65234375 C-102.23599609 107.04712891 -101.62433594 106.44191406 -100.99414062 105.81835938 C-100.35669922 105.19767578 -99.71925781 104.57699219 -99.0625 103.9375 C-98.42892578 103.31294922 -97.79535156 102.68839844 -97.14257812 102.04492188 C-95.96199395 100.88171749 -94.77936136 99.72058569 -93.59399414 98.56225586 C-92.51024009 97.50008062 -91.45255932 96.41078028 -90.41967773 95.29907227 C-89 94 -89 94 -87 94 C-86.87516235 93.14063843 -86.87516235 93.14063843 -86.74780273 92.26391602 C-85.7724824 89.31120775 -84.26235406 87.93775244 -82.03515625 85.77734375 C-81.23529297 84.99166016 -80.43542969 84.20597656 -79.61132812 83.39648438 C-78.77021484 82.58501953 -77.92910156 81.77355469 -77.0625 80.9375 C-75.40542436 79.32379662 -73.75038336 77.70800054 -72.09765625 76.08984375 C-71.36039307 75.37691162 -70.62312988 74.66397949 -69.86352539 73.92944336 C-67.83052096 71.93974967 -67.83052096 71.93974967 -66 69 C-65.34 69 -64.68 69 -64 69 C-63.7628125 68.43796875 -63.525625 67.8759375 -63.28125 67.296875 C-61.71052303 64.48105958 -59.78528536 62.52044584 -57.5 60.25 C-56.7059375 59.45078125 -55.911875 58.6515625 -55.09375 57.828125 C-53 56 -53 56 -51 56 C-50.34 54.68 -49.68 53.36 -49 52 C-48.34 52 -47.68 52 -47 52 C-46.79375 51.30519531 -46.5875 50.61039062 -46.375 49.89453125 C-44.55896471 46.07157059 -42.01134053 43.6100628 -39 40.6875 C-38.4534375 40.13771484 -37.906875 39.58792969 -37.34375 39.02148438 C-33.26731366 35 -33.26731366 35 -31 35 C-30.731875 34.360625 -30.46375 33.72125 -30.1875 33.0625 C-29 31 -29 31 -26 30 C-25.70738281 29.24589844 -25.41476562 28.49179687 -25.11328125 27.71484375 C-23.73199486 24.34644361 -21.96046231 22.89478164 -19.1875 20.5625 C-15.3500499 17.23855042 -12.13972804 13.97083252 -9 10 C-7.66666667 8.66666667 -6.33333333 7.33333333 -5 6 C-4.1645978 4.91826125 -3.33137208 3.83483917 -2.5 2.75 C-1.675 1.8425 -0.85 0.935 0 0 Z " fill="#FFEA1A" transform="translate(751,315)"/>
<path d="M0 0 C1.32 0 2.64 0 4 0 C4 30.03 4 60.06 4 91 C2.68 91 1.36 91 0 91 C-2.47964611 87.28053083 -2.28179062 84.42323831 -2.25878906 80.11962891 C-2.2622937 79.31767593 -2.26579834 78.51572296 -2.26940918 77.68946838 C-2.27822043 75.03507867 -2.2723784 72.38095499 -2.265625 69.7265625 C-2.26697209 67.88194731 -2.26891299 66.03733247 -2.27142334 64.19271851 C-2.274374 60.32408269 -2.2700798 56.45553916 -2.26074219 52.58691406 C-2.24936366 47.63146401 -2.25589734 42.67623099 -2.26788712 37.72078896 C-2.2751209 33.91006847 -2.27281052 30.09939926 -2.26763153 26.28867722 C-2.26629841 24.46185658 -2.26793093 22.63503127 -2.27259064 20.80821609 C-2.27767901 18.25173915 -2.26991247 15.69561117 -2.25878906 13.13916016 C-2.26283752 12.38573837 -2.26688599 11.63231659 -2.27105713 10.85606384 C-2.23840332 6.79774872 -1.80504036 3.6534738 0 0 Z " fill="#000000" transform="translate(1346,697)"/>
<path d="M0 0 C1.32 0 2.64 0 4 0 C4 29.7 4 59.4 4 90 C2.68 90 1.36 90 0 90 C-2.48199178 86.27701233 -2.28176598 83.41167502 -2.25878906 79.10375977 C-2.2622937 78.3002005 -2.26579834 77.49664124 -2.26940918 76.66873169 C-2.27821945 74.00953561 -2.2723793 71.3506051 -2.265625 68.69140625 C-2.26697199 66.84439544 -2.2689128 64.99738497 -2.27142334 63.15037537 C-2.27437376 59.27754341 -2.27008009 55.40480367 -2.26074219 51.53198242 C-2.24935568 46.567466 -2.25590256 41.60316602 -2.26788712 36.63865757 C-2.27511473 32.82368846 -2.27281349 29.00877063 -2.26763153 25.19379997 C-2.26629712 23.36336173 -2.26793547 21.53291884 -2.27259064 19.70248604 C-2.27766976 17.14341022 -2.2699258 14.58468452 -2.25878906 12.02563477 C-2.26283752 11.26861771 -2.26688599 10.51160065 -2.27105713 9.73164368 C-2.24097296 6.00002449 -2.07999263 3.16789497 0 0 Z " fill="#000000" transform="translate(1346,324)"/>
<path d="M0 0 C0.33 0 0.66 0 1 0 C1 1.98 1 3.96 1 6 C0.01 6.33 -0.98 6.66 -2 7 C-2.04125 7.66 -2.0825 8.32 -2.125 9 C-3.18378529 12.630121 -4.96780988 14.83705173 -7.33203125 17.7421875 C-9.15422259 20.10230902 -9.15422259 20.10230902 -10.8359375 23.35546875 C-13.00368755 27.22877744 -15.74321072 30.25707462 -18.8125 33.4375 C-19.89284961 34.57855435 -20.97228251 35.72047735 -22.05078125 36.86328125 C-22.56463379 37.40549316 -23.07848633 37.94770508 -23.60791016 38.50634766 C-25.30416419 40.32635505 -26.90554327 42.21558885 -28.5 44.125 C-31.49026396 47.57078328 -34.72988416 50.70294127 -38.0625 53.8125 C-38.5575 54.28123535 -39.0525 54.7499707 -39.5625 55.23291016 C-42.82522914 58.22194219 -46.03398819 60.09405391 -50 62 C-52.08347341 63.42820899 -54.14529646 64.8883773 -56.1875 66.375 C-61.84006916 70.3953634 -67.56631238 73.37464037 -74 76 C-75.19625 76.556875 -76.3925 77.11375 -77.625 77.6875 C-81.10172618 79.03956018 -84.42227284 79.81125413 -88.08203125 80.47265625 C-90.22011378 80.89055153 -90.22011378 80.89055153 -92 83 C-94.20744501 83.34260934 -96.38338978 83.44123104 -98.61328125 83.55859375 C-101.10472072 83.85616713 -101.10472072 83.85616713 -103.2331543 85.49780273 C-106.58281361 87.31642567 -108.85951303 87.41152091 -112.65625 87.4765625 C-113.92597656 87.5075 -115.19570313 87.5384375 -116.50390625 87.5703125 C-118.48197266 87.59738281 -118.48197266 87.59738281 -120.5 87.625 C-123.11465557 87.67611741 -125.72924684 87.73066751 -128.34375 87.7890625 C-129.50068359 87.80662598 -130.65761719 87.82418945 -131.84960938 87.84228516 C-134.94015154 87.91940825 -134.94015154 87.91940825 -137.68359375 88.53833008 C-140.50480711 89.10061027 -142.9722349 88.70693231 -145.796875 88.29345703 C-149.68097759 87.77609319 -153.58868694 87.63179161 -157.5 87.4375 C-158.73363281 87.37272461 -158.73363281 87.37272461 -159.9921875 87.30664062 C-161.994659 87.20186014 -163.99731224 87.10056231 -166 87 C-162.18984116 83.7329181 -159.86527666 83.62749259 -155 83.7578125 C-150.32705304 84.13505561 -145.72187413 84.87644485 -141.1015625 85.66015625 C-138.19153315 86.16263237 -138.19153315 86.16263237 -136.17285156 85.53442383 C-133.45661243 84.86635108 -130.9293814 84.83674372 -128.1328125 84.7890625 C-126.99972656 84.76070312 -125.86664062 84.73234375 -124.69921875 84.703125 C-122.32437342 84.65121581 -119.94934964 84.60689317 -117.57421875 84.5703125 C-111.57001878 84.40674746 -107.25400513 84.17568032 -102 81 C-99.5859375 80.59375 -99.5859375 80.59375 -97.375 80.5 C-93.54691397 80.1884116 -92.03359529 79.36999632 -89 77 C-86.73860002 76.37350209 -84.46902486 75.91889647 -82.16796875 75.4609375 C-79.61563356 74.91827885 -77.38024623 74.064847 -75 73 C-73.80375 72.525625 -72.6075 72.05125 -71.375 71.5625 C-68.37504963 70.17363409 -67.13756317 69.33188709 -65 67 C-62.33367285 65.1984276 -60.099301 64.02896279 -57 63.125 C-53.32858134 61.748218 -51.73260389 59.79680604 -49 57 C-47.16765416 55.41196694 -45.31321122 53.84907011 -43.4375 52.3125 C-42.50808594 51.54550781 -41.57867188 50.77851562 -40.62109375 49.98828125 C-38 48 -38 48 -35.72265625 46.91796875 C-33.63774979 46.06077701 -33.63774979 46.06077701 -33 43 C-31.37954142 41.28837225 -29.70247149 39.63007558 -28 38 C-16.54835101 26.74964238 -7.07748797 14.48458467 0 0 Z " fill="#FFEB1B" transform="translate(1048,616)"/>
<path d="M0 0 C0.33 0 0.66 0 1 0 C1.15043827 30.16656984 1.2955488 60.33316175 1.4332476 90.49979236 C1.4495181 94.06325694 1.46583391 97.62672131 1.48217773 101.19018555 C1.48543066 101.89959107 1.48868358 102.60899659 1.49203508 103.33989925 C1.54477679 114.8183852 1.6011867 126.29685033 1.6589582 137.77531194 C1.71817891 149.55797816 1.77344374 161.34065818 1.82505554 173.12336022 C1.85414932 179.73952284 1.88518526 186.35566725 1.92053413 192.97179985 C1.95375632 199.20068133 1.98209359 205.42956605 2.00670624 211.65848732 C2.01658997 213.94293439 2.02824888 216.22737459 2.04183006 218.51180267 C2.06013197 221.63530566 2.07199404 224.75877077 2.08229065 227.88230896 C2.08909444 228.78213908 2.09589823 229.6819692 2.10290819 230.6090669 C2.11267405 236.15158826 1.70358579 241.50099624 1 247 C0.34 247 -0.32 247 -1 247 C-1.90635561 233.0263452 -2.11630904 219.12847762 -2.03759766 205.12866211 C-2.0290678 202.90253361 -2.02099929 200.67640331 -2.01335144 198.45027161 C-1.99138301 192.467953 -1.96268039 186.48568502 -1.93239641 180.50340343 C-1.90151054 174.22636874 -1.87603356 167.94931159 -1.84970093 161.67225647 C-1.80183084 150.48312447 -1.74859693 139.29402381 -1.69314377 128.10492743 C-1.64300349 117.95823468 -1.59833089 107.81152973 -1.55761719 97.66479492 C-1.5051541 84.59085886 -1.44764256 71.51695252 -1.38599777 58.44305611 C-1.3626055 53.45704311 -1.34123621 48.47102744 -1.32149124 43.4849987 C-1.29808385 37.63176016 -1.26984786 31.77856478 -1.23780251 25.92536736 C-1.22681638 23.77343547 -1.21753397 21.62149415 -1.21003914 19.46954727 C-1.19957561 16.5438162 -1.18306815 13.61818179 -1.16494751 10.69248962 C-1.16328728 9.83192127 -1.16162706 8.97135291 -1.15991652 8.08470672 C-1.11415437 2.22830874 -1.11415437 2.22830874 0 0 Z " fill="#FFEE1C" transform="translate(757,318)"/>
<path d="M0 0 C1.23026413 -0.0010952 1.23026413 -0.0010952 2.48538208 -0.00221252 C5.18055717 0.00125471 7.87397672 0.04007299 10.56884766 0.0793457 C12.4435634 0.08867695 14.31829137 0.09579159 16.19302368 0.1007843 C21.11539669 0.11982961 26.03702619 0.16890909 30.95910645 0.2243042 C35.98646996 0.27554998 41.01395421 0.29830972 46.04150391 0.32348633 C55.89729843 0.37703025 65.75254235 0.46231313 75.60791016 0.56762695 C75.60791016 1.22762695 75.60791016 1.88762695 75.60791016 2.56762695 C74.09360413 2.55644081 74.09360413 2.55644081 72.54870605 2.54502869 C63.01488697 2.48049146 53.48199704 2.46347281 43.94799042 2.49246883 C39.0467557 2.5058616 34.14670842 2.50276112 29.24560547 2.46142578 C24.51173686 2.42211668 19.77973684 2.42684063 15.04585266 2.46154976 C13.24382014 2.46713039 11.44166657 2.45708858 9.63981628 2.43086052 C-0.26727472 2.0291376 -0.26727472 2.0291376 -9.23510742 5.49734497 C-11.2974089 7.76400844 -12.86485455 9.91803965 -14.39208984 12.56762695 C-14.86682739 13.31837997 -15.34156494 14.069133 -15.83068848 14.84263611 C-16.58461088 16.05796654 -17.30957255 17.2921252 -17.99365234 18.5480957 C-21.07872684 23.00335692 -23.59186215 26.21492106 -29.07479858 27.28915405 C-30.46095711 27.30635815 -31.84777655 27.2910098 -33.23339844 27.2487793 C-34.37588043 27.25009354 -34.37588043 27.25009354 -35.54144287 27.25143433 C-38.04220572 27.24727631 -40.54023722 27.20071578 -43.04052734 27.15356445 C-44.7807163 27.14236579 -46.52092424 27.13382877 -48.26113892 27.12783813 C-52.82860064 27.10499217 -57.39490702 27.04610662 -61.96191406 26.97961426 C-66.62728244 26.91809961 -71.29283856 26.8908036 -75.95849609 26.8605957 C-85.10353336 26.79635832 -94.24771531 26.69403103 -103.39208984 26.56762695 C-103.72208984 25.24762695 -104.05208984 23.92762695 -104.39208984 22.56762695 C-103.0059977 22.57095787 -103.0059977 22.57095787 -101.59190369 22.57435608 C-92.86741177 22.59442455 -84.14292765 22.6096345 -75.41841793 22.61943913 C-70.93347625 22.62464928 -66.44855371 22.63171293 -61.96362305 22.64306641 C-57.63237381 22.65396176 -53.30114294 22.65991786 -48.96988106 22.6625042 C-47.32054925 22.66434648 -45.67121841 22.66794396 -44.02189445 22.67335701 C-41.70508558 22.68065573 -39.3883518 22.68161418 -37.0715332 22.68115234 C-35.09629921 22.68448326 -35.09629921 22.68448326 -33.0811615 22.68788147 C-29.41632823 22.56841706 -26.00441979 22.15720105 -22.39208984 21.56762695 C-22.18583984 20.78387695 -21.97958984 20.00012695 -21.76708984 19.19262695 C-17.6642647 8.37608794 -12.41313928 -0.2921143 0 0 Z " fill="#FFEC1B" transform="translate(976.39208984375,593.432373046875)"/>
<path d="M0 0 C0.33 0 0.66 0 1 0 C2.33006701 8.57154297 -1.21028778 13.21120219 -5.93359375 19.9609375 C-8.10265635 22.85476375 -8.10265635 22.85476375 -9 26 C-9.99 26.495 -9.99 26.495 -11 27 C-11.28875 28.051875 -11.5775 29.10375 -11.875 30.1875 C-13.04921406 34.16678097 -14.5111116 36.705883 -17 40 C-17.7729541 41.06492676 -17.7729541 41.06492676 -18.56152344 42.15136719 C-22.25367543 44.95042355 -25.6311771 44.49960022 -30.140625 44.390625 C-31.02280701 44.38496521 -31.90498901 44.37930542 -32.81390381 44.37347412 C-35.62649213 44.35111591 -38.43779795 44.30092132 -41.25 44.25 C-43.15883574 44.22993425 -45.06769149 44.21168361 -46.9765625 44.1953125 C-51.65153445 44.151253 -56.32554992 44.08222984 -61 44 C-61 43.67 -61 43.34 -61 43 C-59.35 43 -57.7 43 -56 43 C-56 42.34 -56 41.68 -56 41 C-55.01604248 41.01571045 -54.03208496 41.0314209 -53.01831055 41.04760742 C-49.36751492 41.10190978 -45.71675499 41.13635085 -42.06567383 41.16479492 C-40.48553464 41.17988094 -38.90543731 41.2003525 -37.32543945 41.22631836 C-35.05409415 41.26271126 -32.78330241 41.27972762 -30.51171875 41.29296875 C-29.80536789 41.30845261 -29.09901703 41.32393646 -28.3712616 41.33988953 C-24.45063115 41.38396767 -24.45063115 41.38396767 -21.15551758 39.48168945 C-20.77419678 38.99273193 -20.39287598 38.50377441 -20 38 C-19.34 38 -18.68 38 -18 38 C-17.92136719 37.34386719 -17.84273437 36.68773437 -17.76171875 36.01171875 C-16.72581561 31.91591711 -14.82472948 28.5083234 -12.8125 24.8125 C-12.40829834 24.05799561 -12.00409668 23.30349121 -11.58764648 22.52612305 C-8.92663766 17.59497909 -6.0949396 12.79581625 -3.15234375 8.02734375 C-1.69180621 5.45778787 -0.7509979 2.85379203 0 0 Z " fill="#FFEE1B" transform="translate(954,537)"/>
<path d="M0 0 C0.99 0.495 0.99 0.495 2 1 C0.125 5.875 0.125 5.875 -1 7 C-15.67565337 8.69303891 -30.63505093 8.15447125 -45.38720703 8.13037109 C-48.94299665 8.12461905 -52.49871165 8.12800205 -56.05449867 8.13394356 C-58.82384804 8.13756659 -61.59317984 8.13640353 -64.36252975 8.13381577 C-66.30505167 8.13283596 -68.24757431 8.13584236 -70.19009399 8.13894653 C-75.89488094 8.12378286 -81.38424529 8.04317746 -87 7 C-83.32443977 4.54962651 -80.60809198 4.74481513 -76.36328125 4.8046875 C-75.5873764 4.80760803 -74.81147156 4.81052856 -74.01205444 4.8135376 C-72.32762102 4.82114771 -70.64320362 4.83337897 -68.95883179 4.84967041 C-66.29454348 4.87517187 -63.63045401 4.88822175 -60.96606445 4.89794922 C-54.34930174 4.92470953 -47.7327283 4.97314016 -41.11608887 5.02075195 C-35.52486242 5.0601619 -29.93370575 5.09146396 -24.34237671 5.11187744 C-21.71485901 5.12486477 -19.08762777 5.14988023 -16.46020508 5.17529297 C-14.85237886 5.18255697 -13.24454998 5.18926057 -11.63671875 5.1953125 C-10.90415863 5.20564514 -10.17159851 5.21597778 -9.4168396 5.22662354 C-5.70942435 5.22740032 -4.1726631 5.11510873 -1 3 C-0.67 2.01 -0.34 1.02 0 0 Z " fill="#FFE81A" transform="translate(1055,479)"/>
<path d="M0 0 C1.29422379 0.00212242 1.29422379 0.00212242 2.61459351 0.00428772 C5.3759098 0.00989437 8.13714562 0.02244798 10.8984375 0.03515625 C12.768228 0.04017039 14.63801976 0.04473345 16.5078125 0.04882812 C21.09638527 0.05986596 25.68489773 0.07713505 30.2734375 0.09765625 C30.7684375 1.08765625 30.7684375 1.08765625 31.2734375 2.09765625 C24.63867598 2.74158458 18.13099508 3.1647799 11.46875 2.953125 C10.45756104 2.92734375 9.44637207 2.9015625 8.40454102 2.875 C6.38849166 2.81597333 4.3729879 2.73208464 2.35913086 2.62109375 C-2.68685134 2.49028633 -5.87066174 2.65073205 -9.83984375 5.95703125 C-12.38625686 8.45094495 -13.66956372 10.66241022 -14.7265625 14.09765625 C-15.71991451 15.76829372 -16.72088008 17.43441224 -17.7265625 19.09765625 C-18.37934585 20.42760075 -19.02467847 21.76121825 -19.6640625 23.09765625 C-21.32502731 26.48298148 -23.33918864 29.17119797 -25.7265625 32.09765625 C-26.2421875 33.12890625 -26.7578125 34.16015625 -27.2890625 35.22265625 C-28.56348634 37.77150394 -29.59399546 39.26974164 -31.7265625 41.09765625 C-31.21130647 35.81628196 -29.47179133 32.52544469 -26.7265625 28.09765625 C-26.0665625 28.09765625 -25.4065625 28.09765625 -24.7265625 28.09765625 C-24.63246094 27.38480469 -24.53835938 26.67195312 -24.44140625 25.9375 C-23.60602135 22.61878512 -22.2137429 20.48115352 -20.2890625 17.66015625 C-17.70005661 13.86042527 -16.12138772 10.46931624 -14.7265625 6.09765625 C-10.29610271 -0.13267783 -7.32115993 -0.044837 0 0 Z " fill="#FFEB1A" transform="translate(899.7265625,499.90234375)"/>
<path d="M0 0 C0.33 0 0.66 0 1 0 C1 60.39 1 120.78 1 183 C0.67 183 0.34 183 0 183 C0 122.61 0 62.22 0 0 Z " fill="#FFFF32" transform="translate(849,208)"/>
<path d="M0 0 C1.84464844 0.01450195 1.84464844 0.01450195 3.7265625 0.02929688 C12.14218202 0.13095614 20.48862297 0.62640051 28.875 1.3125 C28.875 2.3025 28.875 3.2925 28.875 4.3125 C27.65506348 4.29678955 26.43512695 4.2810791 25.17822266 4.26489258 C20.61221023 4.21021371 16.04622621 4.17601293 11.47998047 4.14770508 C9.51118081 4.13270439 7.54241407 4.11229717 5.57373047 4.08618164 C2.72875802 4.04941185 -0.11576913 4.03268613 -2.9609375 4.01953125 C-4.26156631 3.99630547 -4.26156631 3.99630547 -5.58847046 3.97261047 C-11.11682185 3.97111939 -15.75349857 4.8535361 -20.99194336 6.63031006 C-23.59753756 7.46362603 -26.0224526 7.67822244 -28.75 7.75 C-34.08252036 8.09037364 -37.47184726 9.77441669 -42.125 12.3125 C-42.785 11.9825 -43.445 11.6525 -44.125 11.3125 C-44.125 10.6525 -44.125 9.9925 -44.125 9.3125 C-37.87607867 5.84087704 -32.56611753 4.85248619 -25.43359375 4.78125 C-22.29229204 4.33620135 -21.2031185 3.86082423 -18.60546875 2.30078125 C-12.75147709 -0.82777522 -6.4688297 -0.14974143 0 0 Z " fill="#FFE91B" transform="translate(906.125,375.6875)"/>
<path d="M0 0 C0.70616959 -0.00335861 1.41233917 -0.00671722 2.13990784 -0.01017761 C4.46894093 -0.01965917 6.79790195 -0.02162913 9.12695312 -0.02270508 C10.74833201 -0.02591893 12.3697106 -0.0292831 13.99108887 -0.03279114 C17.38713249 -0.03877492 20.78315069 -0.04063174 24.17919922 -0.04003906 C28.53049061 -0.03993733 32.88161923 -0.05360451 37.23287201 -0.07081127 C40.58030954 -0.08192801 43.92770764 -0.08395839 47.27516174 -0.08342934 C48.87952741 -0.08460937 50.4838941 -0.08903245 52.08824158 -0.0967617 C54.33107946 -0.10655774 56.57356267 -0.10368553 58.81640625 -0.09765625 C60.73024109 -0.09979378 60.73024109 -0.09979378 62.68273926 -0.10197449 C65.70385356 0.12959987 67.38062022 0.54629943 69.90820312 2.14526367 C68.95242371 2.1489093 67.99664429 2.15255493 67.01190186 2.15631104 C58.00666411 2.19324466 49.00176885 2.25099919 39.99679184 2.32916641 C35.36715014 2.36868384 30.73769985 2.40085128 26.10791016 2.41625977 C21.64026228 2.43139842 17.1731405 2.46579378 12.70572662 2.51357269 C11.00093405 2.52841542 9.29606639 2.53630634 7.59120941 2.53714752 C5.20378972 2.53951034 2.81783208 2.56653198 0.43066406 2.59936523 C-0.2749617 2.59433487 -0.98058746 2.5893045 -1.70759583 2.5841217 C-5.16915722 2.65782984 -6.77893821 2.8738991 -9.43695068 5.17938232 C-10.25609955 6.15249359 -10.25609955 6.15249359 -11.09179688 7.14526367 C-11.75179687 7.14526367 -12.41179688 7.14526367 -13.09179688 7.14526367 C-13.17429687 7.66088867 -13.25679687 8.17651367 -13.34179688 8.70776367 C-15.00503944 14.11330201 -17.90290543 18.40518202 -22.09179688 22.14526367 C-22.75179687 21.81526367 -23.41179688 21.48526367 -24.09179688 21.14526367 C-23.65867187 20.65026367 -23.22554687 20.15526367 -22.77929688 19.64526367 C-21.28199048 17.42703198 -20.4800422 15.69391063 -19.59179688 13.20776367 C-17.75539283 8.08866845 -15.88315304 4.0491159 -11.09179688 1.14526367 C-7.42421615 -0.09283365 -3.84517818 0.0114877 0 0 Z " fill="#FFE91B" transform="translate(881.091796875,461.854736328125)"/>
<path d="M0 0 C1 2 1 2 0.57421875 4.00390625 C-1.84956101 10.997632 -5.24377947 17.06323973 -9.06787109 23.35620117 C-12.51541443 29.05917634 -15.55307604 34.88662147 -18.39941406 40.91088867 C-19.93667226 44.11295952 -21.33517595 46.63799686 -24 49 C-24.515625 49.86625 -25.03125 50.7325 -25.5625 51.625 C-27 54 -27 54 -29 55 C-28.44271087 51.65626525 -27.64826111 48.96687001 -26 46 C-25.34 46 -24.68 46 -24 46 C-23.731875 44.9275 -23.46375 43.855 -23.1875 42.75 C-22.1049853 39.33153254 -21.1710548 37.71381851 -19 35 C-18.5359375 33.824375 -18.5359375 33.824375 -18.0625 32.625 C-16.76801149 29.42685192 -14.96662987 26.82703044 -13 24 C-11.22293791 21.33440687 -10.12451727 18.9719385 -9 16 C-8.34 16 -7.68 16 -7 16 C-6.896875 15.13375 -6.79375 14.2675 -6.6875 13.375 C-5.62578566 8.16294778 -3.32230138 4.11332552 0 0 Z " fill="#FFEA1B" transform="translate(855,487)"/>
<path d="M0 0 C-4.9082876 3.34018533 -9.18804414 5.51852106 -15 7 C-15.99 7.66 -16.98 8.32 -18 9 C-20.33294775 9.04241723 -22.66702567 9.04092937 -25 9 C-27.31036915 9.42854995 -27.31036915 9.42854995 -29 10 C-29.33 9.34 -29.66 8.68 -30 8 C-26.95434472 5.96956315 -26.08703211 5.75746085 -22.625 5.5625 C-18.61213627 5.19476168 -16.40315906 4.21205339 -13 2 C-4.53334352 -1.5213942 -4.53334352 -1.5213942 0 0 Z " fill="#FFE91B" transform="translate(955,882)"/>
<path d="M0 0 C4.31338115 3.36654138 7.85360706 6.96438347 11.3828125 11.14453125 C13.06340369 13.14816393 13.06340369 13.14816393 15.5 15.25 C16.2425 16.11625 16.2425 16.11625 17 17 C16.75 19.25 16.75 19.25 16 21 C16 20.01 16 19.02 16 18 C15.2575 17.79375 14.515 17.5875 13.75 17.375 C10.20503041 15.60251521 9.05201604 13.32568116 7 10 C6.34 9.67 5.68 9.34 5 9 C4.67 8.01 4.34 7.02 4 6 C3.319375 5.319375 2.63875 4.63875 1.9375 3.9375 C1.298125 3.298125 0.65875 2.65875 0 2 C0 1.34 0 0.68 0 0 Z " fill="#FFEC1A" transform="translate(699,708)"/>
<path d="M0 0 C6.93 0 13.86 0 21 0 C20 2 20 2 18.18066406 2.63256836 C14.69737608 3.219486 11.2508013 2.83155452 7.75 2.5625 C7.00492188 2.51029297 6.25984375 2.45808594 5.4921875 2.40429688 C3.66105139 2.2751783 1.83046187 2.13834886 0 2 C0 1.34 0 0.68 0 0 Z " fill="#FFE71B" transform="translate(902,891)"/>
<path d="M0 0 C0.33 0 0.66 0 1 0 C1 4.95 1 9.9 1 15 C0.01 15.495 0.01 15.495 -1 16 C-1.97551509 13.07345473 -2.16478088 11.05345004 -2.1875 8 C-2.20167969 7.13375 -2.21585938 6.2675 -2.23046875 5.375 C-2 3 -2 3 0 0 Z " fill="#FFE71B" transform="translate(1248,533)"/>
<path d="M0 0 C7.84179688 6.4453125 7.84179688 6.4453125 10 10 C10 10.66 10 11.32 10 12 C11.32 12.66 12.64 13.32 14 14 C13.67 15.32 13.34 16.64 13 18 C12.4225 17.2575 11.845 16.515 11.25 15.75 C9.12192547 13.04166225 9.12192547 13.04166225 6.9375 11 C3.81501696 7.7767917 1.97604604 3.98587064 0 0 Z " fill="#FFF01D" transform="translate(663,671)"/>
<path d="M0 0 C5.46829686 4.26793901 11.75582558 9.26747674 14 16 C13.01 15.67 12.02 15.34 11 15 C11 14.34 11 13.68 11 13 C10.01 12.67 9.02 12.34 8 12 C6.71875 10.4765625 6.71875 10.4765625 5.5 8.625 C4.2057962 6.67539813 3.03003377 5.02904208 1.34375 3.3984375 C0 2 0 2 0 0 Z " fill="#FFEF1C" transform="translate(790,804)"/>
<path d="M0 0 C1.19109375 0.13535156 1.19109375 0.13535156 2.40625 0.2734375 C4.5 0.625 4.5 0.625 6.5 1.625 C6.5 2.285 6.5 2.945 6.5 3.625 C2.21 3.295 -2.08 2.965 -6.5 2.625 C-6.5 1.965 -6.5 1.305 -6.5 0.625 C-4.01458657 -0.61770671 -2.73584621 -0.32865685 0 0 Z " fill="#FFEA1B" transform="translate(947.5,380.375)"/>
<path d="M0 0 C2 0 2 0 3.65625 1.609375 C4.2646875 2.31578125 4.873125 3.0221875 5.5 3.75 C6.1084375 4.44609375 6.716875 5.1421875 7.34375 5.859375 C8.87976963 7.84460792 9.9723966 9.71872045 11 12 C10.01 11.67 9.02 11.34 8 11 C7.67 10.34 7.34 9.68 7 9 C6.01 8.67 5.02 8.34 4 8 C2.19032651 5.35509259 1.01527629 3.04582887 0 0 Z " fill="#FFE61C" transform="translate(1188,439)"/>
<path d="M0 0 C8.58 0 17.16 0 26 0 C26 0.33 26 0.66 26 1 C17.42 1 8.84 1 0 1 C0 0.67 0 0.34 0 0 Z " fill="#FFFF08" transform="translate(898,571)"/>
<path d="M0 0 C0.66 0 1.32 0 2 0 C3.4375 1.49609375 3.4375 1.49609375 5 3.4375 C7.14525044 6.15188238 7.14525044 6.15188238 10 8 C10 8.66 10 9.32 10 10 C5.57299578 8.60865582 3.00586708 6.52115858 0 3 C0 2.01 0 1.02 0 0 Z " fill="#FFEC1A" transform="translate(684,693)"/>
<path d="M0 0 C0.99 0 1.98 0 3 0 C3.268125 0.598125 3.53625 1.19625 3.8125 1.8125 C4.98493467 3.97224808 6.19369282 5.35790256 8 7 C7.67 7.66 7.34 8.32 7 9 C4.03595495 6.19195732 1.55500981 3.81684226 0 0 Z " fill="#FFEC1B" transform="translate(994,235)"/>
<path d="M0 0 C0.33 0.99 0.66 1.98 1 3 C-0.0828125 2.7525 -0.0828125 2.7525 -1.1875 2.5 C-3.86427545 2.02412881 -6.28949487 1.922557 -9 2 C-9 1.34 -9 0.68 -9 0 C-5.52176885 -1.15941038 -3.54104422 -0.70820884 0 0 Z " fill="#FFEA1A" transform="translate(965,385)"/>
<path d="M0 0 C2.31 0.66 4.62 1.32 7 2 C4.64561267 3.42944945 3.51967567 4.08661261 0.75 3.625 C0.1725 3.41875 -0.405 3.2125 -1 3 C-0.67 2.01 -0.34 1.02 0 0 Z " fill="#FFED1D" transform="translate(871,696)"/>
<path d="" fill="#FFFF24" transform="translate(0,0)"/>
</svg>
